<?xml version="1.0" standalone="no"?><!DOCTYPE svg PUBLIC "-//W3C//DTD SVG 1.1//EN" "http://www.w3.org/Graphics/SVG/1.1/DTD/svg11.dtd"><svg t="1715319855790" class="icon" viewBox="0 0 1024 1024" version="1.1" xmlns="http://www.w3.org/2000/svg" p-id="6293" xmlns:xlink="http://www.w3.org/1999/xlink" width="200" height="200"><path d="M417.28106 1024a70.659674 70.659674 0 0 1-70.659674-70.659674v-256.03533h-70.53602a14.131935 14.131935 0 0 1-14.131935-14.131935 14.131935 14.131935 0 0 1 0.264974-2.720397 14.131935 14.131935 0 0 1 4.062931-8.83246l362.749103-365.169197a19.979023 19.979023 0 0 1 18.830803-5.900082 21.197902 21.197902 0 0 1 10.88159 6.218051l361.671543 364.109302a14.290919 14.290919 0 0 1 3.109026 15.368479 14.131935 14.131935 0 0 1-13.849297 11.058239h-70.447695V953.340326a70.659674 70.659674 0 0 1-70.659674 70.659674z" fill="#5C97FF" opacity=".2" p-id="6294"></path><path d="M141.319702 494.070108h-123.65443a17.664919 17.664919 0 0 1-17.664919-17.664919 16.887662 16.887662 0 0 1 0.353299-3.532984 17.664919 17.664919 0 0 1 5.087496-10.7756l454.129727-454.129727a26.020425 26.020425 0 0 1 18.336185-7.966878 21.374551 21.374551 0 0 1 5.299476 0.653602 26.762352 26.762352 0 0 1 13.531328 7.719569l452.822522 452.822523a17.664919 17.664919 0 0 1 3.886283 19.148772 17.664919 17.664919 0 0 1-17.223296 13.707977H812.586608v-17.664919h17.664918v-17.664918h66.861717l-419.153188-419.170853L58.789202 458.722606H123.654783v17.664918h17.664919v17.664919z" fill="#5C97FF" p-id="6295"></path><path d="M777.256771 953.340326h-35.329838v-35.329837h35.329838a35.329837 35.329837 0 0 0 35.329837-35.329838v-406.293127h35.329837v406.293127a70.747999 70.747999 0 0 1-70.659674 70.659675z m-388.628209 0h-211.979023a70.659674 70.659674 0 0 1-70.659674-70.659675v-70.659674h35.329837v70.659674a35.329837 35.329837 0 0 0 35.329837 35.329838h211.979023v35.329837z m-247.30886-282.638698h-35.329837v-194.314104h35.329837v194.314104z" fill="#5C97FF" p-id="6296"></path><path d="M123.654783 476.387524m-17.664918 0a17.664919 17.664919 0 1 0 35.329837 0 17.664919 17.664919 0 1 0-35.329837 0Z" fill="#5C97FF" p-id="6297"></path><path d="M830.251526 476.387524m-17.664918 0a17.664919 17.664919 0 1 0 35.329837 0 17.664919 17.664919 0 1 0-35.329837 0Z" fill="#5C97FF" p-id="6298"></path><path d="M573.47427 947.334253l-122.382556-70.659674a35.329837 35.329837 0 0 1-12.93072-48.260557l88.324593-152.978195a35.329837 35.329837 0 0 1 6.536019-8.231852 17.664919 17.664919 0 0 0 8.7618 17.064311l15.29782 8.832459-79.492134 137.680376a17.664919 17.664919 0 0 0 6.46536 24.130278l91.786917 52.994756a17.664919 17.664919 0 0 0 24.130279-6.46536l79.492133-137.680375 15.29782 8.832459a17.664919 17.664919 0 0 0 19.166437-0.936241 35.329837 35.329837 0 0 1-3.868618 9.7687l-88.324593 152.978195a35.329837 35.329837 0 0 1-48.260557 12.948385z" fill="#5C97FF" p-id="6299"></path><path d="M105.989865 706.596743m17.664918 0l0 0q17.664919 0 17.664919 17.664919l0 35.329837q0 17.664919-17.664919 17.664918l0 0q-17.664919 0-17.664918-17.664918l0-35.329837q0-17.664919 17.664918-17.664919Z" fill="#5C97FF" p-id="6300"></path><path d="M388.628562 936.240685m-17.664919 0a17.664919 17.664919 0 1 0 35.329838 0 17.664919 17.664919 0 1 0-35.329838 0Z" fill="#5C97FF" p-id="6301"></path><path d="M741.926933 936.240685m-17.664918 0a17.664919 17.664919 0 1 0 35.329837 0 17.664919 17.664919 0 1 0-35.329837 0Z" fill="#5C97FF" p-id="6302"></path><path d="M123.654783 671.266906m-17.664918 0a17.664919 17.664919 0 1 0 35.329837 0 17.664919 17.664919 0 1 0-35.329837 0Z" fill="#5C97FF" p-id="6303"></path><path d="M123.654783 812.586254m-17.664918 0a17.664919 17.664919 0 1 0 35.329837 0 17.664919 17.664919 0 1 0-35.329837 0Z" fill="#5C97FF" p-id="6304"></path><path d="M686.900712 784.940657a17.558929 17.558929 0 0 1-8.231852-10.722606l-14.785537-55.20287a17.664919 17.664919 0 0 0 2.649738-3.515319l22.522771-39.021805 23.759316 88.607231a17.664919 17.664919 0 0 1-12.489098 21.639526 17.558929 17.558929 0 0 1-13.425338-1.766492z m-152.218603-87.88297a17.541264 17.541264 0 0 1-8.231852-10.722606 17.664919 17.664919 0 0 1 12.489097-21.62186l89.119514-23.88297-22.717085 39.339774a17.664919 17.664919 0 0 0-1.625172 3.762627l-55.609164 14.909192a17.541264 17.541264 0 0 1-13.425338-1.766492z" fill="#5C97FF" p-id="6305"></path><path d="M600.605999 759.012812m-30.596537-17.664919a35.329837 35.329837 0 1 0 61.193073 35.329837 35.329837 35.329837 0 1 0-61.193073-35.329837Z" fill="#FFB266" p-id="6306"></path><path d="M673.631618 597.199405m15.298268 8.832459l0 0q15.298268 8.832459 6.465809 24.130728l-70.659674 122.386145q-8.832459 15.298268-24.130728 6.465809l0 0q-15.298268-8.832459-6.465809-24.130727l70.659675-122.386146q8.832459-15.298268 24.130727-6.465809Z" fill="#FFB266" p-id="6307"></path><path d="M335.633806 812.020977m17.664919 0l35.329837 0q17.664919 0 17.664919 17.664919l0 35.329837q0 17.664919-17.664919 17.664918l-35.329837 0q-17.664919 0-17.664919-17.664918l0-35.329837q0-17.664919 17.664919-17.664919Z" fill="#5C97FF" p-id="6308"></path><path d="M229.644295 812.020977m17.664918 0l35.329838 0q17.664919 0 17.664918 17.664919l0 35.329837q0 17.664919-17.664918 17.664918l-35.329838 0q-17.664919 0-17.664918-17.664918l0-35.329837q0-17.664919 17.664918-17.664919Z" fill="#5C97FF" p-id="6309"></path><path d="M335.633806 706.031466m17.664919 0l35.329837 0q17.664919 0 17.664919 17.664918l0 35.329837q0 17.664919-17.664919 17.664919l-35.329837 0q-17.664919 0-17.664919-17.664919l0-35.329837q0-17.664919 17.664919-17.664918Z" fill="#5C97FF" p-id="6310"></path></svg>