M48
METRIC
VER,1
FMAT,2
T01C0.8
T03C2.0
DETECT,ON
ATC,ON
%
T01
X009109Y00486
X012862Y004883
X235219
X235171Y245069
X009038Y245077
X010086Y012618
X011986
T03
X014486
X016386
X018886
X020786
X023286
X025186
X024802Y015845
X023671
Y018592
X024802
X025186Y021818
X023286
X020786
X018886
X016386
X014486
X011986
X010086
Y024618
X011986
X014486
X016386
X018886
X020786
X023286
X025186
X024802Y027845
X023671
Y030592
X024802
X025186Y033818
X023286
X020786
X018886
X016386
X014486
X011986
X010086
Y036618
X011986
X014486
X016386
X018886
X020786
X023286
X025186
X024802Y039845
X023671
X020402
X019271
X016002
X014871
X011602
X010471
Y030592
X011602
Y027845
X010471
X014871
X016002
Y030592
X014871
X019271
X020402
Y027845
X019271
Y018592
X020402
Y015845
X019271
X016002
X014871
Y018592
X016002
X011602
X010471
Y015845
X011602
X029086Y012618
X030986
X033486
X035386
X037886
X039786
X042286
X044186
X043802Y015845
X042671
Y018592
X043802
X044186Y021818
X042286
X039786
X037886
X035386
X033486
X030986
X029086
Y024618
X030986
X033486
X035386
X037886
X039786
X042286
X044186
X043802Y027845
X042671
Y030592
X043802
X044186Y033818
X042286
X039786
X037886
X035386
X033486
X030986
X029086
Y036618
X030986
X033486
X035386
X037886
X039786
X042286
X044186
X043802Y039845
X042671
X039402
X038271
X035002
X033871
X030602
X029471
Y030592
X030602
Y027845
X029471
X033871
X035002
Y030592
X033871
X038271
X039402
Y027845
X038271
Y018592
X039402
Y015845
X038271
X035002
X033871
Y018592
X035002
X030602
X029471
Y015845
X030602
X048086Y012618
X049986
X052486
X054386
X056886
X058786
X061286
X063186
X062802Y015845
X061671
Y018592
X062802
X063186Y021818
X061286
X058786
X056886
X054386
X052486
X049986
X048086
Y024618
X049986
X052486
X054386
X056886
X058786
X061286
X063186
X062802Y027845
X061671
Y030592
X062802
X063186Y033818
X061286
X058786
X056886
X054386
X052486
X049986
X048086
Y036618
X049986
X052486
X054386
X056886
X058786
X061286
X063186
X062802Y039845
X061671
X058402
X057271
X054002
X052871
X049602
X048471
Y030592
X049602
Y027845
X048471
X052871
X054002
Y030592
X052871
X057271
X058402
Y027845
X057271
Y018592
X058402
Y015845
X057271
X054002
X052871
Y018592
X054002
X049602
X048471
Y015845
X049602
X067086Y012618
X068986
X071486
X073386
X075886
X077786
X080286
X082186
X081802Y015845
X080671
Y018592
X081802
X082186Y021818
X080286
X077786
X075886
X073386
X071486
X068986
X067086
Y024618
X068986
X071486
X073386
X075886
X077786
X080286
X082186
X081802Y027845
X080671
Y030592
X081802
X082186Y033818
X080286
X077786
X075886
X073386
X071486
X068986
X067086
Y036618
X068986
X071486
X073386
X075886
X077786
X080286
X082186
X081802Y039845
X080671
X077402
X076271
X073002
X071871
X068602
X067471
Y030592
X068602
Y027845
X067471
X071871
X073002
Y030592
X071871
X076271
X077402
Y027845
X076271
Y018592
X077402
Y015845
X076271
X073002
X071871
Y018592
X073002
X068602
X067471
Y015845
X068602
X086086Y012618
X087986
X090486
X092386
X094886
X096786
X099286
X101186
X100802Y015845
X099671
Y018592
X100802
X101186Y021818
X099286
X096786
X094886
X092386
X090486
X087986
X086086
Y024618
X087986
X090486
X092386
X094886
X096786
X099286
X101186
X100802Y027845
X099671
Y030592
X100802
X101186Y033818
X099286
X096786
X094886
X092386
X090486
X087986
X086086
Y036618
X087986
X090486
X092386
X094886
X096786
X099286
X101186
X100802Y039845
X099671
X096402
X095271
X092002
X090871
X087602
X086471
Y030592
X087602
Y027845
X086471
X090871
X092002
Y030592
X090871
X095271
X096402
Y027845
X095271
Y018592
X096402
Y015845
X095271
X092002
X090871
Y018592
X092002
X087602
X086471
Y015845
X087602
X105086Y012618
X106986
X109486
X111386
X113886
X115786
X118286
X120186
X119802Y015845
X118671
Y018592
X119802
X120186Y021818
X118286
X115786
X113886
X111386
X109486
X106986
X105086
Y024618
X106986
X109486
X111386
X113886
X115786
X118286
X120186
X119802Y027845
X118671
Y030592
X119802
X120186Y033818
X118286
X115786
X113886
X111386
X109486
X106986
X105086
Y036618
X106986
X109486
X111386
X113886
X115786
X118286
X120186
X119802Y039845
X118671
X115402
X114271
X111002
X109871
X106602
X105471
Y030592
X106602
Y027845
X105471
X109871
X111002
Y030592
X109871
X114271
X115402
Y027845
X114271
Y018592
X115402
Y015845
X114271
X111002
X109871
Y018592
X111002
X106602
X105471
Y015845
X106602
X124086Y012618
X125986
X128486
X130386
X132886
X134786
X137286
X139186
X138802Y015845
X137671
Y018592
X138802
X139186Y021818
X137286
X134786
X132886
X130386
X128486
X125986
X124086
Y024618
X125986
X128486
X130386
X132886
X134786
X137286
X139186
X138802Y027845
X137671
Y030592
X138802
X139186Y033818
X137286
X134786
X132886
X130386
X128486
X125986
X124086
Y036618
X125986
X128486
X130386
X132886
X134786
X137286
X139186
X138802Y039845
X137671
X134402
X133271
X130002
X128871
X125602
X124471
Y030592
X125602
Y027845
X124471
X128871
X130002
Y030592
X128871
X133271
X134402
Y027845
X133271
Y018592
X134402
Y015845
X133271
X130002
X128871
Y018592
X130002
X125602
X124471
Y015845
X125602
X143086Y012618
X144986
X147486
X149386
X151886
X153786
X156286
X158186
X157802Y015845
X156671
Y018592
X157802
X158186Y021818
X156286
X153786
X151886
X149386
X147486
X144986
X143086
Y024618
X144986
X147486
X149386
X151886
X153786
X156286
X158186
X157802Y027845
X156671
Y030592
X157802
X158186Y033818
X156286
X153786
X151886
X149386
X147486
X144986
X143086
Y036618
X144986
X147486
X149386
X151886
X153786
X156286
X158186
X157802Y039845
X156671
X153402
X152271
X149002
X147871
X144602
X143471
Y030592
X144602
Y027845
X143471
X147871
X149002
Y030592
X147871
X152271
X153402
Y027845
X152271
Y018592
X153402
Y015845
X152271
X149002
X147871
Y018592
X149002
X144602
X143471
Y015845
X144602
X162086Y012618
X163986
X166486
X168386
X170886
X172786
X175286
X177186
X176802Y015845
X175671
Y018592
X176802
X177186Y021818
X175286
X172786
X170886
X168386
X166486
X163986
X162086
Y024618
X163986
X166486
X168386
X170886
X172786
X175286
X177186
X176802Y027845
X175671
Y030592
X176802
X177186Y033818
X175286
X172786
X170886
X168386
X166486
X163986
X162086
Y036618
X163986
X166486
X168386
X170886
X172786
X175286
X177186
X176802Y039845
X175671
X172402
X171271
X168002
X166871
X163602
X162471
Y030592
X163602
Y027845
X162471
X166871
X168002
Y030592
X166871
X171271
X172402
Y027845
X171271
Y018592
X172402
Y015845
X171271
X168002
X166871
Y018592
X168002
X163602
X162471
Y015845
X163602
X181086Y012618
X182986
X185486
X187386
X189886
X191786
X194286
X196186
X195802Y015845
X194671
Y018592
X195802
X196186Y021818
X194286
X191786
X189886
X187386
X185486
X182986
X181086
Y024618
X182986
X185486
X187386
X189886
X191786
X194286
X196186
X195802Y027845
X194671
Y030592
X195802
X196186Y033818
X194286
X191786
X189886
X187386
X185486
X182986
X181086
Y036618
X182986
X185486
X187386
X189886
X191786
X194286
X196186
X195802Y039845
X194671
X191402
X190271
X187002
X185871
X182602
X181471
Y030592
X182602
Y027845
X181471
X185871
X187002
Y030592
X185871
X190271
X191402
Y027845
X190271
Y018592
X191402
Y015845
X190271
X187002
X185871
Y018592
X187002
X182602
X181471
Y015845
X182602
X200086Y012618
X201986
X204486
X206386
X208886
X210786
X213286
X215186
X214802Y015845
X213671
Y018592
X214802
X215186Y021818
X213286
X210786
X208886
X206386
X204486
X201986
X200086
Y024618
X201986
X204486
X206386
X208886
X210786
X213286
X215186
X214802Y027845
X213671
Y030592
X214802
X215186Y033818
X213286
X210786
X208886
X206386
X204486
X201986
X200086
Y036618
X201986
X204486
X206386
X208886
X210786
X213286
X215186
X214802Y039845
X213671
X210402
X209271
X206002
X204871
X201602
X200471
Y030592
X201602
Y027845
X200471
X204871
X206002
Y030592
X204871
X209271
X210402
Y027845
X209271
Y018592
X210402
Y015845
X209271
X206002
X204871
Y018592
X206002
X201602
X200471
Y015845
X201602
X219086Y012618
X220986
X223486
X225386
X227886
X229786
X232286
X234186
X233802Y015845
X232671
Y018592
X233802
X234186Y021818
X232286
X229786
X227886
X225386
X223486
X220986
X219086
Y024618
X220986
X223486
X225386
X227886
X229786
X232286
X234186
X233802Y027845
X232671
Y030592
X233802
X234186Y033818
X232286
X229786
X227886
X225386
X223486
X220986
X219086
Y036618
X220986
X223486
X225386
X227886
X229786
X232286
X234186
X233802Y039845
X232671
X229402
X228271
X225002
X223871
X220602
X219471
Y030592
X220602
Y027845
X219471
X223871
X225002
Y030592
X223871
X228271
X229402
Y027845
X228271
Y018592
X229402
Y015845
X228271
X225002
X223871
Y018592
X225002
X220602
X219471
Y015845
X220602
X220986Y052118
X219086
X219471Y055345
X220602
Y058092
X219471
X219086Y061318
X220986
X223486
X225386
X227886
X229786
X232286
X234186
Y064118
X232286
X229786
X227886
X225386
X223486
X220986
X219086
X219471Y067345
X220602
Y070092
X219471
X219086Y073318
X220986
X223486
X225386
X227886
X229786
X232286
X234186
Y076118
X232286
X229786
X227886
X225386
X223486
X220986
X219086
X219471Y079345
X220602
X223871
X225002
X228271
X229402
X232671
X233802
Y070092
X232671
Y067345
X233802
X229402
X228271
Y070092
X229402
X225002
X223871
Y067345
X225002
Y058092
X223871
Y055345
X225002
X225386Y052118
X223486
X227886
X229786
X232286
X234186
X233802Y055345
X232671
Y058092
X233802
X229402
X228271
Y055345
X229402
X215186Y052118
X213286
X210786
X208886
X206386
X204486
X201986
X200086
X200471Y055345
X201602
Y058092
X200471
X200086Y061318
X201986
X204486
X206386
X208886
X210786
X213286
X215186
Y064118
X213286
X210786
X208886
X206386
X204486
X201986
X200086
X200471Y067345
X201602
Y070092
X200471
X200086Y073318
X201986
X204486
X206386
X208886
X210786
X213286
X215186
Y076118
X213286
X210786
X208886
X206386
X204486
X201986
X200086
X200471Y079345
X201602
X204871
X206002
X209271
X210402
X213671
X214802
Y070092
X213671
Y067345
X214802
X210402
X209271
Y070092
X210402
X206002
X204871
Y067345
X206002
Y058092
X204871
Y055345
X206002
X209271
X210402
Y058092
X209271
X213671
X214802
Y055345
X213671
X196186Y052118
X194286
X191786
X189886
X187386
X185486
X182986
X181086
X181471Y055345
X182602
Y058092
X181471
X181086Y061318
X182986
X185486
X187386
X189886
X191786
X194286
X196186
Y064118
X194286
X191786
X189886
X187386
X185486
X182986
X181086
X181471Y067345
X182602
Y070092
X181471
X181086Y073318
X182986
X185486
X187386
X189886
X191786
X194286
X196186
Y076118
X194286
X191786
X189886
X187386
X185486
X182986
X181086
X181471Y079345
X182602
X185871
X187002
X190271
X191402
X194671
X195802
Y070092
X194671
Y067345
X195802
X191402
X190271
Y070092
X191402
X187002
X185871
Y067345
X187002
Y058092
X185871
Y055345
X187002
X190271
X191402
Y058092
X190271
X194671
X195802
Y055345
X194671
X177186Y052118
X175286
X172786
X170886
X168386
X166486
X163986
X162086
X162471Y055345
X163602
Y058092
X162471
X162086Y061318
X163986
X166486
X168386
X170886
X172786
X175286
X177186
Y064118
X175286
X172786
X170886
X168386
X166486
X163986
X162086
X162471Y067345
X163602
Y070092
X162471
X162086Y073318
X163986
X166486
X168386
X170886
X172786
X175286
X177186
Y076118
X175286
X172786
X170886
X168386
X166486
X163986
X162086
X162471Y079345
X163602
X166871
X168002
X171271
X172402
X175671
X176802
Y070092
X175671
Y067345
X176802
X172402
X171271
Y070092
X172402
X168002
X166871
Y067345
X168002
Y058092
X166871
Y055345
X168002
X171271
X172402
Y058092
X171271
X175671
X176802
Y055345
X175671
X158186Y052118
X156286
X153786
X151886
X149386
X147486
X144986
X143086
X143471Y055345
X144602
Y058092
X143471
X143086Y061318
X144986
X147486
X149386
X151886
X153786
X156286
X158186
Y064118
X156286
X153786
X151886
X149386
X147486
X144986
X143086
X143471Y067345
X144602
Y070092
X143471
X143086Y073318
X144986
X147486
X149386
X151886
X153786
X156286
X158186
Y076118
X156286
X153786
X151886
X149386
X147486
X144986
X143086
X143471Y079345
X144602
X147871
X149002
X152271
X153402
X156671
X157802
Y070092
X156671
Y067345
X157802
X153402
X152271
Y070092
X153402
X149002
X147871
Y067345
X149002
Y058092
X147871
Y055345
X149002
X152271
X153402
Y058092
X152271
X156671
X157802
Y055345
X156671
X139186Y052118
X137286
X134786
X132886
X130386
X128486
X125986
X124086
X124471Y055345
X125602
Y058092
X124471
X124086Y061318
X125986
X128486
X130386
X132886
X134786
X137286
X139186
Y064118
X137286
X134786
X132886
X130386
X128486
X125986
X124086
X124471Y067345
X125602
Y070092
X124471
X124086Y073318
X125986
X128486
X130386
X132886
X134786
X137286
X139186
Y076118
X137286
X134786
X132886
X130386
X128486
X125986
X124086
X124471Y079345
X125602
X128871
X130002
X133271
X134402
X137671
X138802
Y070092
X137671
Y067345
X138802
X134402
X133271
Y070092
X134402
X130002
X128871
Y067345
X130002
Y058092
X128871
Y055345
X130002
X133271
X134402
Y058092
X133271
X137671
X138802
Y055345
X137671
X120186Y052118
X118286
X115786
X113886
X111386
X109486
X106986
X105086
X105471Y055345
X106602
Y058092
X105471
X105086Y061318
X106986
X109486
X111386
X113886
X115786
X118286
X120186
Y064118
X118286
X115786
X113886
X111386
X109486
X106986
X105086
X105471Y067345
X106602
Y070092
X105471
X105086Y073318
X106986
X109486
X111386
X113886
X115786
X118286
X120186
Y076118
X118286
X115786
X113886
X111386
X109486
X106986
X105086
X105471Y079345
X106602
X109871
X111002
X114271
X115402
X118671
X119802
Y070092
X118671
Y067345
X119802
X115402
X114271
Y070092
X115402
X111002
X109871
Y067345
X111002
Y058092
X109871
Y055345
X111002
X114271
X115402
Y058092
X114271
X118671
X119802
Y055345
X118671
X101186Y052118
X099286
X096786
X094886
X092386
X090486
X087986
X086086
X086471Y055345
X087602
Y058092
X086471
X086086Y061318
X087986
X090486
X092386
X094886
X096786
X099286
X101186
Y064118
X099286
X096786
X094886
X092386
X090486
X087986
X086086
X086471Y067345
X087602
Y070092
X086471
X086086Y073318
X087986
X090486
X092386
X094886
X096786
X099286
X101186
Y076118
X099286
X096786
X094886
X092386
X090486
X087986
X086086
X086471Y079345
X087602
X090871
X092002
X095271
X096402
X099671
X100802
Y070092
X099671
Y067345
X100802
X096402
X095271
Y070092
X096402
X092002
X090871
Y067345
X092002
Y058092
X090871
Y055345
X092002
X095271
X096402
Y058092
X095271
X099671
X100802
Y055345
X099671
X082186Y052118
X080286
X077786
X075886
X073386
X071486
X068986
X067086
X067471Y055345
X068602
Y058092
X067471
X067086Y061318
X068986
X071486
X073386
X075886
X077786
X080286
X082186
Y064118
X080286
X077786
X075886
X073386
X071486
X068986
X067086
X067471Y067345
X068602
Y070092
X067471
X067086Y073318
X068986
X071486
X073386
X075886
X077786
X080286
X082186
Y076118
X080286
X077786
X075886
X073386
X071486
X068986
X067086
X067471Y079345
X068602
X071871
X073002
X076271
X077402
X080671
X081802
Y070092
X080671
Y067345
X081802
X077402
X076271
Y070092
X077402
X073002
X071871
Y067345
X073002
Y058092
X071871
Y055345
X073002
X076271
X077402
Y058092
X076271
X080671
X081802
Y055345
X080671
X063186Y052118
X061286
X058786
X056886
X054386
X052486
X049986
X048086
X048471Y055345
X049602
Y058092
X048471
X048086Y061318
X049986
X052486
X054386
X056886
X058786
X061286
X063186
Y064118
X061286
X058786
X056886
X054386
X052486
X049986
X048086
X048471Y067345
X049602
Y070092
X048471
X048086Y073318
X049986
X052486
X054386
X056886
X058786
X061286
X063186
Y076118
X061286
X058786
X056886
X054386
X052486
X049986
X048086
X048471Y079345
X049602
X052871
X054002
X057271
X058402
X061671
X062802
Y070092
X061671
Y067345
X062802
X058402
X057271
Y070092
X058402
X054002
X052871
Y067345
X054002
Y058092
X052871
Y055345
X054002
X057271
X058402
Y058092
X057271
X061671
X062802
Y055345
X061671
X044186Y052118
X042286
X039786
X037886
X035386
X033486
X030986
X029086
X029471Y055345
X030602
Y058092
X029471
X029086Y061318
X030986
X033486
X035386
X037886
X039786
X042286
X044186
Y064118
X042286
X039786
X037886
X035386
X033486
X030986
X029086
X029471Y067345
X030602
Y070092
X029471
X029086Y073318
X030986
X033486
X035386
X037886
X039786
X042286
X044186
Y076118
X042286
X039786
X037886
X035386
X033486
X030986
X029086
X029471Y079345
X030602
X033871
X035002
X038271
X039402
X042671
X043802
Y070092
X042671
Y067345
X043802
X039402
X038271
Y070092
X039402
X035002
X033871
Y067345
X035002
Y058092
X033871
Y055345
X035002
X038271
X039402
Y058092
X038271
X042671
X043802
Y055345
X042671
X025186Y052118
X023286
X020786
X018886
X016386
X014486
X011986
X010086
X010471Y055345
X011602
Y058092
X010471
X010086Y061318
X011986
X014486
X016386
X018886
X020786
X023286
X025186
Y064118
X023286
X020786
X018886
X016386
X014486
X011986
X010086
X010471Y067345
X011602
Y070092
X010471
X010086Y073318
X011986
X014486
X016386
X018886
X020786
X023286
X025186
Y076118
X023286
X020786
X018886
X016386
X014486
X011986
X010086
X010471Y079345
X011602
X014871
X016002
X019271
X020402
X023671
X024802
Y070092
X023671
Y067345
X024802
X020402
X019271
Y070092
X020402
X016002
X014871
Y067345
X016002
Y058092
X014871
Y055345
X016002
X019271
X020402
Y058092
X019271
X023671
X024802
Y055345
X023671
X023286Y091618
X025186
X024802Y094845
X023671
Y097592
X024802
X025186Y100818
X023286
X020786
X018886
X016386
X014486
X011986
X010086
Y103618
X011986
X014486
X016386
X018886
X020786
X023286
X025186
X024802Y106845
X023671
Y109592
X024802
X025186Y112818
X023286
X020786
X018886
X016386
X014486
X011986
X010086
Y115618
X011986
X014486
X016386
X018886
X020786
X023286
X025186
X024802Y118845
X023671
X020402
X019271
X016002
X014871
X011602
X010471
Y109592
X011602
Y106845
X010471
X014871
X016002
Y109592
X014871
X019271
X020402
Y106845
X019271
Y097592
X020402
Y094845
X019271
X018886Y091618
X020786
X016386
X014486
X011986
X010086
X010471Y094845
X011602
Y097592
X010471
X014871
X016002
Y094845
X014871
X029086Y091618
X030986
X033486
X035386
X037886
X039786
X042286
X044186
X043802Y094845
X042671
Y097592
X043802
X044186Y100818
X042286
X039786
X037886
X035386
X033486
X030986
X029086
Y103618
X030986
X033486
X035386
X037886
X039786
X042286
X044186
X043802Y106845
X042671
Y109592
X043802
X044186Y112818
X042286
X039786
X037886
X035386
X033486
X030986
X029086
Y115618
X030986
X033486
X035386
X037886
X039786
X042286
X044186
X043802Y118845
X042671
X039402
X038271
X035002
X033871
X030602
X029471
Y109592
X030602
Y106845
X029471
X033871
X035002
Y109592
X033871
X038271
X039402
Y106845
X038271
Y097592
X039402
Y094845
X038271
X035002
X033871
Y097592
X035002
X030602
X029471
Y094845
X030602
X048086Y091618
X049986
X052486
X054386
X056886
X058786
X061286
X063186
X062802Y094845
X061671
Y097592
X062802
X063186Y100818
X061286
X058786
X056886
X054386
X052486
X049986
X048086
Y103618
X049986
X052486
X054386
X056886
X058786
X061286
X063186
X062802Y106845
X061671
Y109592
X062802
X063186Y112818
X061286
X058786
X056886
X054386
X052486
X049986
X048086
Y115618
X049986
X052486
X054386
X056886
X058786
X061286
X063186
X062802Y118845
X061671
X058402
X057271
X054002
X052871
X049602
X048471
Y109592
X049602
Y106845
X048471
X052871
X054002
Y109592
X052871
X057271
X058402
Y106845
X057271
Y097592
X058402
Y094845
X057271
X054002
X052871
Y097592
X054002
X049602
X048471
Y094845
X049602
X067086Y091618
X068986
X071486
X073386
X075886
X077786
X080286
X082186
X081802Y094845
X080671
Y097592
X081802
X082186Y100818
X080286
X077786
X075886
X073386
X071486
X068986
X067086
Y103618
X068986
X071486
X073386
X075886
X077786
X080286
X082186
X081802Y106845
X080671
Y109592
X081802
X082186Y112818
X080286
X077786
X075886
X073386
X071486
X068986
X067086
Y115618
X068986
X071486
X073386
X075886
X077786
X080286
X082186
X081802Y118845
X080671
X077402
X076271
X073002
X071871
X068602
X067471
Y109592
X068602
Y106845
X067471
X071871
X073002
Y109592
X071871
X076271
X077402
Y106845
X076271
Y097592
X077402
Y094845
X076271
X073002
X071871
Y097592
X073002
X068602
X067471
Y094845
X068602
X086086Y091618
X087986
X090486
X092386
X094886
X096786
X099286
X101186
X100802Y094845
X099671
Y097592
X100802
X101186Y100818
X099286
X096786
X094886
X092386
X090486
X087986
X086086
Y103618
X087986
X090486
X092386
X094886
X096786
X099286
X101186
X100802Y106845
X099671
Y109592
X100802
X101186Y112818
X099286
X096786
X094886
X092386
X090486
X087986
X086086
Y115618
X087986
X090486
X092386
X094886
X096786
X099286
X101186
X100802Y118845
X099671
X096402
X095271
X092002
X090871
X087602
X086471
Y109592
X087602
Y106845
X086471
X090871
X092002
Y109592
X090871
X095271
X096402
Y106845
X095271
Y097592
X096402
Y094845
X095271
X092002
X090871
Y097592
X092002
X087602
X086471
Y094845
X087602
X105086Y091618
X106986
X109486
X111386
X113886
X115786
X118286
X120186
X119802Y094845
X118671
Y097592
X119802
X120186Y100818
X118286
X115786
X113886
X111386
X109486
X106986
X105086
Y103618
X106986
X109486
X111386
X113886
X115786
X118286
X120186
X119802Y106845
X118671
Y109592
X119802
X120186Y112818
X118286
X115786
X113886
X111386
X109486
X106986
X105086
Y115618
X106986
X109486
X111386
X113886
X115786
X118286
X120186
X119802Y118845
X118671
X115402
X114271
X111002
X109871
X106602
X105471
Y109592
X106602
Y106845
X105471
X109871
X111002
Y109592
X109871
X114271
X115402
Y106845
X114271
Y097592
X115402
Y094845
X114271
X111002
X109871
Y097592
X111002
X106602
X105471
Y094845
X106602
X124086Y091618
X125986
X128486
X130386
X132886
X134786
X137286
X139186
X138802Y094845
X137671
Y097592
X138802
X139186Y100818
X137286
X134786
X132886
X130386
X128486
X125986
X124086
Y103618
X125986
X128486
X130386
X132886
X134786
X137286
X139186
X138802Y106845
X137671
Y109592
X138802
X139186Y112818
X137286
X134786
X132886
X130386
X128486
X125986
X124086
Y115618
X125986
X128486
X130386
X132886
X134786
X137286
X139186
X138802Y118845
X137671
X134402
X133271
X130002
X128871
X125602
X124471
Y109592
X125602
Y106845
X124471
X128871
X130002
Y109592
X128871
X133271
X134402
Y106845
X133271
Y097592
X134402
Y094845
X133271
X130002
X128871
Y097592
X130002
X125602
X124471
Y094845
X125602
X143086Y091618
X144986
X147486
X149386
X151886
X153786
X156286
X158186
X157802Y094845
X156671
Y097592
X157802
X158186Y100818
X156286
X153786
X151886
X149386
X147486
X144986
X143086
Y103618
X144986
X147486
X149386
X151886
X153786
X156286
X158186
X157802Y106845
X156671
Y109592
X157802
X158186Y112818
X156286
X153786
X151886
X149386
X147486
X144986
X143086
Y115618
X144986
X147486
X149386
X151886
X153786
X156286
X158186
X157802Y118845
X156671
X153402
X152271
X149002
X147871
X144602
X143471
Y109592
X144602
Y106845
X143471
X147871
X149002
Y109592
X147871
X152271
X153402
Y106845
X152271
Y097592
X153402
Y094845
X152271
X149002
X147871
Y097592
X149002
X144602
X143471
Y094845
X144602
X162086Y091618
X163986
X166486
X168386
X170886
X172786
X175286
X177186
X176802Y094845
X175671
Y097592
X176802
X177186Y100818
X175286
X172786
X170886
X168386
X166486
X163986
X162086
Y103618
X163986
X166486
X168386
X170886
X172786
X175286
X177186
X176802Y106845
X175671
Y109592
X176802
X177186Y112818
X175286
X172786
X170886
X168386
X166486
X163986
X162086
Y115618
X163986
X166486
X168386
X170886
X172786
X175286
X177186
X176802Y118845
X175671
X172402
X171271
X168002
X166871
X163602
X162471
Y109592
X163602
Y106845
X162471
X166871
X168002
Y109592
X166871
X171271
X172402
Y106845
X171271
Y097592
X172402
Y094845
X171271
X168002
X166871
Y097592
X168002
X163602
X162471
Y094845
X163602
X181086Y091618
X182986
X185486
X187386
X189886
X191786
X194286
X196186
X195802Y094845
X194671
Y097592
X195802
X196186Y100818
X194286
X191786
X189886
X187386
X185486
X182986
X181086
Y103618
X182986
X185486
X187386
X189886
X191786
X194286
X196186
X195802Y106845
X194671
Y109592
X195802
X196186Y112818
X194286
X191786
X189886
X187386
X185486
X182986
X181086
Y115618
X182986
X185486
X187386
X189886
X191786
X194286
X196186
X195802Y118845
X194671
X191402
X190271
X187002
X185871
X182602
X181471
Y109592
X182602
Y106845
X181471
X185871
X187002
Y109592
X185871
X190271
X191402
Y106845
X190271
Y097592
X191402
Y094845
X190271
X187002
X185871
Y097592
X187002
X182602
X181471
Y094845
X182602
X200086Y091618
X201986
X204486
X206386
X208886
X210786
X213286
X215186
X214802Y094845
X213671
Y097592
X214802
X215186Y100818
X213286
X210786
X208886
X206386
X204486
X201986
X200086
Y103618
X201986
X204486
X206386
X208886
X210786
X213286
X215186
X214802Y106845
X213671
Y109592
X214802
X215186Y112818
X213286
X210786
X208886
X206386
X204486
X201986
X200086
Y115618
X201986
X204486
X206386
X208886
X210786
X213286
X215186
X214802Y118845
X213671
X210402
X209271
X206002
X204871
X201602
X200471
Y109592
X201602
Y106845
X200471
X204871
X206002
Y109592
X204871
X209271
X210402
Y106845
X209271
Y097592
X210402
Y094845
X209271
X206002
X204871
Y097592
X206002
X201602
X200471
Y094845
X201602
X219086Y091618
X220986
X223486
X225386
X227886
X229786
X232286
X234186
X233802Y094845
X232671
Y097592
X233802
X234186Y100818
X232286
X229786
X227886
X225386
X223486
X220986
X219086
Y103618
X220986
X223486
X225386
X227886
X229786
X232286
X234186
X233802Y106845
X232671
Y109592
X233802
X234186Y112818
X232286
X229786
X227886
X225386
X223486
X220986
X219086
Y115618
X220986
X223486
X225386
X227886
X229786
X232286
X234186
X233802Y118845
X232671
X229402
X228271
X225002
X223871
X220602
X219471
Y109592
X220602
Y106845
X219471
X223871
X225002
Y109592
X223871
X228271
X229402
Y106845
X228271
Y097592
X229402
Y094845
X228271
X225002
X223871
Y097592
X225002
X220602
X219471
Y094845
X220602
X220986Y131118
X219086
X219471Y134345
X220602
Y137092
X219471
X219086Y140318
X220986
X223486
X225386
X227886
X229786
X232286
X234186
Y143118
X232286
X229786
X227886
X225386
X223486
X220986
X219086
X219471Y146345
X220602
Y149092
X219471
X219086Y152318
X220986
X223486
X225386
X227886
X229786
X232286
X234186
Y155118
X232286
X229786
X227886
X225386
X223486
X220986
X219086
X219471Y158345
X220602
X223871
X225002
X228271
X229402
X232671
X233802
Y149092
X232671
Y146345
X233802
X229402
X228271
Y149092
X229402
X225002
X223871
Y146345
X225002
Y137092
X223871
Y134345
X225002
X225386Y131118
X223486
X227886
X229786
X232286
X234186
X233802Y134345
X232671
Y137092
X233802
X229402
X228271
Y134345
X229402
X215186Y131118
X213286
X210786
X208886
X206386
X204486
X201986
X200086
X200471Y134345
X201602
Y137092
X200471
X200086Y140318
X201986
X204486
X206386
X208886
X210786
X213286
X215186
Y143118
X213286
X210786
X208886
X206386
X204486
X201986
X200086
X200471Y146345
X201602
Y149092
X200471
X200086Y152318
X201986
X204486
X206386
X208886
X210786
X213286
X215186
Y155118
X213286
X210786
X208886
X206386
X204486
X201986
X200086
X200471Y158345
X201602
X204871
X206002
X209271
X210402
X213671
X214802
Y149092
X213671
Y146345
X214802
X210402
X209271
Y149092
X210402
X206002
X204871
Y146345
X206002
Y137092
X204871
Y134345
X206002
X209271
X210402
Y137092
X209271
X213671
X214802
Y134345
X213671
X196186Y131118
X194286
X191786
X189886
X187386
X185486
X182986
X181086
X181471Y134345
X182602
Y137092
X181471
X181086Y140318
X182986
X185486
X187386
X189886
X191786
X194286
X196186
Y143118
X194286
X191786
X189886
X187386
X185486
X182986
X181086
X181471Y146345
X182602
Y149092
X181471
X181086Y152318
X182986
X185486
X187386
X189886
X191786
X194286
X196186
Y155118
X194286
X191786
X189886
X187386
X185486
X182986
X181086
X181471Y158345
X182602
X185871
X187002
X190271
X191402
X194671
X195802
Y149092
X194671
Y146345
X195802
X191402
X190271
Y149092
X191402
X187002
X185871
Y146345
X187002
Y137092
X185871
Y134345
X187002
X190271
X191402
Y137092
X190271
X194671
X195802
Y134345
X194671
X177186Y131118
X175286
X172786
X170886
X168386
X166486
X163986
X162086
X162471Y134345
X163602
Y137092
X162471
X162086Y140318
X163986
X166486
X168386
X170886
X172786
X175286
X177186
Y143118
X175286
X172786
X170886
X168386
X166486
X163986
X162086
X162471Y146345
X163602
Y149092
X162471
X162086Y152318
X163986
X166486
X168386
X170886
X172786
X175286
X177186
Y155118
X175286
X172786
X170886
X168386
X166486
X163986
X162086
X162471Y158345
X163602
X166871
X168002
X171271
X172402
X175671
X176802
Y149092
X175671
Y146345
X176802
X172402
X171271
Y149092
X172402
X168002
X166871
Y146345
X168002
Y137092
X166871
Y134345
X168002
X171271
X172402
Y137092
X171271
X175671
X176802
Y134345
X175671
X158186Y131118
X156286
X153786
X151886
X149386
X147486
X144986
X143086
X143471Y134345
X144602
Y137092
X143471
X143086Y140318
X144986
X147486
X149386
X151886
X153786
X156286
X158186
Y143118
X156286
X153786
X151886
X149386
X147486
X144986
X143086
X143471Y146345
X144602
Y149092
X143471
X143086Y152318
X144986
X147486
X149386
X151886
X153786
X156286
X158186
Y155118
X156286
X153786
X151886
X149386
X147486
X144986
X143086
X143471Y158345
X144602
X147871
X149002
X152271
X153402
X156671
X157802
Y149092
X156671
Y146345
X157802
X153402
X152271
Y149092
X153402
X149002
X147871
Y146345
X149002
Y137092
X147871
Y134345
X149002
X152271
X153402
Y137092
X152271
X156671
X157802
Y134345
X156671
X139186Y131118
X137286
X134786
X132886
X130386
X128486
X125986
X124086
X124471Y134345
X125602
Y137092
X124471
X124086Y140318
X125986
X128486
X130386
X132886
X134786
X137286
X139186
Y143118
X137286
X134786
X132886
X130386
X128486
X125986
X124086
X124471Y146345
X125602
Y149092
X124471
X124086Y152318
X125986
X128486
X130386
X132886
X134786
X137286
X139186
Y155118
X137286
X134786
X132886
X130386
X128486
X125986
X124086
X124471Y158345
X125602
X128871
X130002
X133271
X134402
X137671
X138802
Y149092
X137671
Y146345
X138802
X134402
X133271
Y149092
X134402
X130002
X128871
Y146345
X130002
Y137092
X128871
Y134345
X130002
X133271
X134402
Y137092
X133271
X137671
X138802
Y134345
X137671
X120186Y131118
X118286
X115786
X113886
X111386
X109486
X106986
X105086
X105471Y134345
X106602
Y137092
X105471
X105086Y140318
X106986
X109486
X111386
X113886
X115786
X118286
X120186
Y143118
X118286
X115786
X113886
X111386
X109486
X106986
X105086
X105471Y146345
X106602
Y149092
X105471
X105086Y152318
X106986
X109486
X111386
X113886
X115786
X118286
X120186
Y155118
X118286
X115786
X113886
X111386
X109486
X106986
X105086
X105471Y158345
X106602
X109871
X111002
X114271
X115402
X118671
X119802
Y149092
X118671
Y146345
X119802
X115402
X114271
Y149092
X115402
X111002
X109871
Y146345
X111002
Y137092
X109871
Y134345
X111002
X114271
X115402
Y137092
X114271
X118671
X119802
Y134345
X118671
X101186Y131118
X099286
X096786
X094886
X092386
X090486
X087986
X086086
X086471Y134345
X087602
Y137092
X086471
X086086Y140318
X087986
X090486
X092386
X094886
X096786
X099286
X101186
Y143118
X099286
X096786
X094886
X092386
X090486
X087986
X086086
X086471Y146345
X087602
Y149092
X086471
X086086Y152318
X087986
X090486
X092386
X094886
X096786
X099286
X101186
Y155118
X099286
X096786
X094886
X092386
X090486
X087986
X086086
X086471Y158345
X087602
X090871
X092002
X095271
X096402
X099671
X100802
Y149092
X099671
Y146345
X100802
X096402
X095271
Y149092
X096402
X092002
X090871
Y146345
X092002
Y137092
X090871
Y134345
X092002
X095271
X096402
Y137092
X095271
X099671
X100802
Y134345
X099671
X082186Y131118
X080286
X077786
X075886
X073386
X071486
X068986
X067086
X067471Y134345
X068602
Y137092
X067471
X067086Y140318
X068986
X071486
X073386
X075886
X077786
X080286
X082186
Y143118
X080286
X077786
X075886
X073386
X071486
X068986
X067086
X067471Y146345
X068602
Y149092
X067471
X067086Y152318
X068986
X071486
X073386
X075886
X077786
X080286
X082186
Y155118
X080286
X077786
X075886
X073386
X071486
X068986
X067086
X067471Y158345
X068602
X071871
X073002
X076271
X077402
X080671
X081802
Y149092
X080671
Y146345
X081802
X077402
X076271
Y149092
X077402
X073002
X071871
Y146345
X073002
Y137092
X071871
Y134345
X073002
X076271
X077402
Y137092
X076271
X080671
X081802
Y134345
X080671
X063186Y131118
X061286
X058786
X056886
X054386
X052486
X049986
X048086
X048471Y134345
X049602
Y137092
X048471
X048086Y140318
X049986
X052486
X054386
X056886
X058786
X061286
X063186
Y143118
X061286
X058786
X056886
X054386
X052486
X049986
X048086
X048471Y146345
X049602
Y149092
X048471
X048086Y152318
X049986
X052486
X054386
X056886
X058786
X061286
X063186
Y155118
X061286
X058786
X056886
X054386
X052486
X049986
X048086
X048471Y158345
X049602
X052871
X054002
X057271
X058402
X061671
X062802
Y149092
X061671
Y146345
X062802
X058402
X057271
Y149092
X058402
X054002
X052871
Y146345
X054002
Y137092
X052871
Y134345
X054002
X057271
X058402
Y137092
X057271
X061671
X062802
Y134345
X061671
X044186Y131118
X042286
X039786
X037886
X035386
X033486
X030986
X029086
X029471Y134345
X030602
Y137092
X029471
X029086Y140318
X030986
X033486
X035386
X037886
X039786
X042286
X044186
Y143118
X042286
X039786
X037886
X035386
X033486
X030986
X029086
X029471Y146345
X030602
Y149092
X029471
X029086Y152318
X030986
X033486
X035386
X037886
X039786
X042286
X044186
Y155118
X042286
X039786
X037886
X035386
X033486
X030986
X029086
X029471Y158345
X030602
X033871
X035002
X038271
X039402
X042671
X043802
Y149092
X042671
Y146345
X043802
X039402
X038271
Y149092
X039402
X035002
X033871
Y146345
X035002
Y137092
X033871
Y134345
X035002
X038271
X039402
Y137092
X038271
X042671
X043802
Y134345
X042671
X025186Y131118
X023286
X020786
X018886
X016386
X014486
X011986
X010086
X010471Y134345
X011602
Y137092
X010471
X010086Y140318
X011986
X014486
X016386
X018886
X020786
X023286
X025186
Y143118
X023286
X020786
X018886
X016386
X014486
X011986
X010086
X010471Y146345
X011602
Y149092
X010471
X010086Y152318
X011986
X014486
X016386
X018886
X020786
X023286
X025186
Y155118
X023286
X020786
X018886
X016386
X014486
X011986
X010086
X010471Y158345
X011602
X014871
X016002
X019271
X020402
X023671
X024802
Y149092
X023671
Y146345
X024802
X020402
X019271
Y149092
X020402
X016002
X014871
Y146345
X016002
Y137092
X014871
Y134345
X016002
X019271
X020402
Y137092
X019271
X023671
X024802
Y134345
X023671
X023286Y170618
X025186
X024802Y173845
X023671
Y176592
X024802
X025186Y179818
X023286
X020786
X018886
X016386
X014486
X011986
X010086
Y182618
X011986
X014486
X016386
X018886
X020786
X023286
X025186
X024802Y185845
X023671
Y188592
X024802
X025186Y191818
X023286
X020786
X018886
X016386
X014486
X011986
X010086
Y194618
X011986
X014486
X016386
X018886
X020786
X023286
X025186
X024802Y197845
X023671
X020402
X019271
X016002
X014871
X011602
X010471
Y188592
X011602
Y185845
X010471
X014871
X016002
Y188592
X014871
X019271
X020402
Y185845
X019271
Y176592
X020402
Y173845
X019271
X018886Y170618
X020786
X016386
X014486
X011986
X010086
X010471Y173845
X011602
Y176592
X010471
X014871
X016002
Y173845
X014871
X029086Y170618
X030986
X033486
X035386
X037886
X039786
X042286
X044186
X043802Y173845
X042671
Y176592
X043802
X044186Y179818
X042286
X039786
X037886
X035386
X033486
X030986
X029086
Y182618
X030986
X033486
X035386
X037886
X039786
X042286
X044186
X043802Y185845
X042671
Y188592
X043802
X044186Y191818
X042286
X039786
X037886
X035386
X033486
X030986
X029086
Y194618
X030986
X033486
X035386
X037886
X039786
X042286
X044186
X043802Y197845
X042671
X039402
X038271
X035002
X033871
X030602
X029471
Y188592
X030602
Y185845
X029471
X033871
X035002
Y188592
X033871
X038271
X039402
Y185845
X038271
Y176592
X039402
Y173845
X038271
X035002
X033871
Y176592
X035002
X030602
X029471
Y173845
X030602
X048086Y170618
X049986
X052486
X054386
X056886
X058786
X061286
X063186
X062802Y173845
X061671
Y176592
X062802
X063186Y179818
X061286
X058786
X056886
X054386
X052486
X049986
X048086
Y182618
X049986
X052486
X054386
X056886
X058786
X061286
X063186
X062802Y185845
X061671
Y188592
X062802
X063186Y191818
X061286
X058786
X056886
X054386
X052486
X049986
X048086
Y194618
X049986
X052486
X054386
X056886
X058786
X061286
X063186
X062802Y197845
X061671
X058402
X057271
X054002
X052871
X049602
X048471
Y188592
X049602
Y185845
X048471
X052871
X054002
Y188592
X052871
X057271
X058402
Y185845
X057271
Y176592
X058402
Y173845
X057271
X054002
X052871
Y176592
X054002
X049602
X048471
Y173845
X049602
X067086Y170618
X068986
X071486
X073386
X075886
X077786
X080286
X082186
X081802Y173845
X080671
Y176592
X081802
X082186Y179818
X080286
X077786
X075886
X073386
X071486
X068986
X067086
Y182618
X068986
X071486
X073386
X075886
X077786
X080286
X082186
X081802Y185845
X080671
Y188592
X081802
X082186Y191818
X080286
X077786
X075886
X073386
X071486
X068986
X067086
Y194618
X068986
X071486
X073386
X075886
X077786
X080286
X082186
X081802Y197845
X080671
X077402
X076271
X073002
X071871
X068602
X067471
Y188592
X068602
Y185845
X067471
X071871
X073002
Y188592
X071871
X076271
X077402
Y185845
X076271
Y176592
X077402
Y173845
X076271
X073002
X071871
Y176592
X073002
X068602
X067471
Y173845
X068602
X086086Y170618
X087986
X090486
X092386
X094886
X096786
X099286
X101186
X100802Y173845
X099671
Y176592
X100802
X101186Y179818
X099286
X096786
X094886
X092386
X090486
X087986
X086086
Y182618
X087986
X090486
X092386
X094886
X096786
X099286
X101186
X100802Y185845
X099671
Y188592
X100802
X101186Y191818
X099286
X096786
X094886
X092386
X090486
X087986
X086086
Y194618
X087986
X090486
X092386
X094886
X096786
X099286
X101186
X100802Y197845
X099671
X096402
X095271
X092002
X090871
X087602
X086471
Y188592
X087602
Y185845
X086471
X090871
X092002
Y188592
X090871
X095271
X096402
Y185845
X095271
Y176592
X096402
Y173845
X095271
X092002
X090871
Y176592
X092002
X087602
X086471
Y173845
X087602
X105086Y170618
X106986
X109486
X111386
X113886
X115786
X118286
X120186
X119802Y173845
X118671
Y176592
X119802
X120186Y179818
X118286
X115786
X113886
X111386
X109486
X106986
X105086
Y182618
X106986
X109486
X111386
X113886
X115786
X118286
X120186
X119802Y185845
X118671
Y188592
X119802
X120186Y191818
X118286
X115786
X113886
X111386
X109486
X106986
X105086
Y194618
X106986
X109486
X111386
X113886
X115786
X118286
X120186
X119802Y197845
X118671
X115402
X114271
X111002
X109871
X106602
X105471
Y188592
X106602
Y185845
X105471
X109871
X111002
Y188592
X109871
X114271
X115402
Y185845
X114271
Y176592
X115402
Y173845
X114271
X111002
X109871
Y176592
X111002
X106602
X105471
Y173845
X106602
X124086Y170618
X125986
X128486
X130386
X132886
X134786
X137286
X139186
X138802Y173845
X137671
Y176592
X138802
X139186Y179818
X137286
X134786
X132886
X130386
X128486
X125986
X124086
Y182618
X125986
X128486
X130386
X132886
X134786
X137286
X139186
X138802Y185845
X137671
Y188592
X138802
X139186Y191818
X137286
X134786
X132886
X130386
X128486
X125986
X124086
Y194618
X125986
X128486
X130386
X132886
X134786
X137286
X139186
X138802Y197845
X137671
X134402
X133271
X130002
X128871
X125602
X124471
Y188592
X125602
Y185845
X124471
X128871
X130002
Y188592
X128871
X133271
X134402
Y185845
X133271
Y176592
X134402
Y173845
X133271
X130002
X128871
Y176592
X130002
X125602
X124471
Y173845
X125602
X143086Y170618
X144986
X147486
X149386
X151886
X153786
X156286
X158186
X157802Y173845
X156671
Y176592
X157802
X158186Y179818
X156286
X153786
X151886
X149386
X147486
X144986
X143086
Y182618
X144986
X147486
X149386
X151886
X153786
X156286
X158186
X157802Y185845
X156671
Y188592
X157802
X158186Y191818
X156286
X153786
X151886
X149386
X147486
X144986
X143086
Y194618
X144986
X147486
X149386
X151886
X153786
X156286
X158186
X157802Y197845
X156671
X153402
X152271
X149002
X147871
X144602
X143471
Y188592
X144602
Y185845
X143471
X147871
X149002
Y188592
X147871
X152271
X153402
Y185845
X152271
Y176592
X153402
Y173845
X152271
X149002
X147871
Y176592
X149002
X144602
X143471
Y173845
X144602
X162086Y170618
X163986
X166486
X168386
X170886
X172786
X175286
X177186
X176802Y173845
X175671
Y176592
X176802
X177186Y179818
X175286
X172786
X170886
X168386
X166486
X163986
X162086
Y182618
X163986
X166486
X168386
X170886
X172786
X175286
X177186
X176802Y185845
X175671
Y188592
X176802
X177186Y191818
X175286
X172786
X170886
X168386
X166486
X163986
X162086
Y194618
X163986
X166486
X168386
X170886
X172786
X175286
X177186
X176802Y197845
X175671
X172402
X171271
X168002
X166871
X163602
X162471
Y188592
X163602
Y185845
X162471
X166871
X168002
Y188592
X166871
X171271
X172402
Y185845
X171271
Y176592
X172402
Y173845
X171271
X168002
X166871
Y176592
X168002
X163602
X162471
Y173845
X163602
X181086Y170618
X182986
X185486
X187386
X189886
X191786
X194286
X196186
X195802Y173845
X194671
Y176592
X195802
X196186Y179818
X194286
X191786
X189886
X187386
X185486
X182986
X181086
Y182618
X182986
X185486
X187386
X189886
X191786
X194286
X196186
X195802Y185845
X194671
Y188592
X195802
X196186Y191818
X194286
X191786
X189886
X187386
X185486
X182986
X181086
Y194618
X182986
X185486
X187386
X189886
X191786
X194286
X196186
X195802Y197845
X194671
X191402
X190271
X187002
X185871
X182602
X181471
Y188592
X182602
Y185845
X181471
X185871
X187002
Y188592
X185871
X190271
X191402
Y185845
X190271
Y176592
X191402
Y173845
X190271
X187002
X185871
Y176592
X187002
X182602
X181471
Y173845
X182602
X200086Y170618
X201986
X204486
X206386
X208886
X210786
X213286
X215186
X214802Y173845
X213671
Y176592
X214802
X215186Y179818
X213286
X210786
X208886
X206386
X204486
X201986
X200086
Y182618
X201986
X204486
X206386
X208886
X210786
X213286
X215186
X214802Y185845
X213671
Y188592
X214802
X215186Y191818
X213286
X210786
X208886
X206386
X204486
X201986
X200086
Y194618
X201986
X204486
X206386
X208886
X210786
X213286
X215186
X214802Y197845
X213671
X210402
X209271
X206002
X204871
X201602
X200471
Y188592
X201602
Y185845
X200471
X204871
X206002
Y188592
X204871
X209271
X210402
Y185845
X209271
Y176592
X210402
Y173845
X209271
X206002
X204871
Y176592
X206002
X201602
X200471
Y173845
X201602
X219086Y170618
X220986
X223486
X225386
X227886
X229786
X232286
X234186
X233802Y173845
X232671
Y176592
X233802
X234186Y179818
X232286
X229786
X227886
X225386
X223486
X220986
X219086
Y182618
X220986
X223486
X225386
X227886
X229786
X232286
X234186
X233802Y185845
X232671
Y188592
X233802
X234186Y191818
X232286
X229786
X227886
X225386
X223486
X220986
X219086
Y194618
X220986
X223486
X225386
X227886
X229786
X232286
X234186
X233802Y197845
X232671
X229402
X228271
X225002
X223871
X220602
X219471
Y188592
X220602
Y185845
X219471
X223871
X225002
Y188592
X223871
X228271
X229402
Y185845
X228271
Y176592
X229402
Y173845
X228271
X225002
X223871
Y176592
X225002
X220602
X219471
Y173845
X220602
X220986Y210118
X219086
X219471Y213345
X220602
Y216092
X219471
X219086Y219318
X220986
X223486
X225386
X227886
X229786
X232286
X234186
Y222118
X232286
X229786
X227886
X225386
X223486
X220986
X219086
X219471Y225345
X220602
Y228092
X219471
X219086Y231318
X220986
X223486
X225386
X227886
X229786
X232286
X234186
Y234118
X232286
X229786
X227886
X225386
X223486
X220986
X219086
X219471Y237345
X220602
X223871
X225002
X228271
X229402
X232671
X233802
Y228092
X232671
Y225345
X233802
X229402
X228271
Y228092
X229402
X225002
X223871
Y225345
X225002
Y216092
X223871
Y213345
X225002
X225386Y210118
X223486
X227886
X229786
X232286
X234186
X233802Y213345
X232671
Y216092
X233802
X229402
X228271
Y213345
X229402
X215186Y210118
X213286
X210786
X208886
X206386
X204486
X201986
X200086
X200471Y213345
X201602
Y216092
X200471
X200086Y219318
X201986
X204486
X206386
X208886
X210786
X213286
X215186
Y222118
X213286
X210786
X208886
X206386
X204486
X201986
X200086
X200471Y225345
X201602
Y228092
X200471
X200086Y231318
X201986
X204486
X206386
X208886
X210786
X213286
X215186
Y234118
X213286
X210786
X208886
X206386
X204486
X201986
X200086
X200471Y237345
X201602
X204871
X206002
X209271
X210402
X213671
X214802
Y228092
X213671
Y225345
X214802
X210402
X209271
Y228092
X210402
X206002
X204871
Y225345
X206002
Y216092
X204871
Y213345
X206002
X209271
X210402
Y216092
X209271
X213671
X214802
Y213345
X213671
X196186Y210118
X194286
X191786
X189886
X187386
X185486
X182986
X181086
X181471Y213345
X182602
Y216092
X181471
X181086Y219318
X182986
X185486
X187386
X189886
X191786
X194286
X196186
Y222118
X194286
X191786
X189886
X187386
X185486
X182986
X181086
X181471Y225345
X182602
Y228092
X181471
X181086Y231318
X182986
X185486
X187386
X189886
X191786
X194286
X196186
Y234118
X194286
X191786
X189886
X187386
X185486
X182986
X181086
X181471Y237345
X182602
X185871
X187002
X190271
X191402
X194671
X195802
Y228092
X194671
Y225345
X195802
X191402
X190271
Y228092
X191402
X187002
X185871
Y225345
X187002
Y216092
X185871
Y213345
X187002
X190271
X191402
Y216092
X190271
X194671
X195802
Y213345
X194671
X177186Y210118
X175286
X172786
X170886
X168386
X166486
X163986
X162086
X162471Y213345
X163602
Y216092
X162471
X162086Y219318
X163986
X166486
X168386
X170886
X172786
X175286
X177186
Y222118
X175286
X172786
X170886
X168386
X166486
X163986
X162086
X162471Y225345
X163602
Y228092
X162471
X162086Y231318
X163986
X166486
X168386
X170886
X172786
X175286
X177186
Y234118
X175286
X172786
X170886
X168386
X166486
X163986
X162086
X162471Y237345
X163602
X166871
X168002
X171271
X172402
X175671
X176802
Y228092
X175671
Y225345
X176802
X172402
X171271
Y228092
X172402
X168002
X166871
Y225345
X168002
Y216092
X166871
Y213345
X168002
X171271
X172402
Y216092
X171271
X175671
X176802
Y213345
X175671
X158186Y210118
X156286
X153786
X151886
X149386
X147486
X144986
X143086
X143471Y213345
X144602
Y216092
X143471
X143086Y219318
X144986
X147486
X149386
X151886
X153786
X156286
X158186
Y222118
X156286
X153786
X151886
X149386
X147486
X144986
X143086
X143471Y225345
X144602
Y228092
X143471
X143086Y231318
X144986
X147486
X149386
X151886
X153786
X156286
X158186
Y234118
X156286
X153786
X151886
X149386
X147486
X144986
X143086
X143471Y237345
X144602
X147871
X149002
X152271
X153402
X156671
X157802
Y228092
X156671
Y225345
X157802
X153402
X152271
Y228092
X153402
X149002
X147871
Y225345
X149002
Y216092
X147871
Y213345
X149002
X152271
X153402
Y216092
X152271
X156671
X157802
Y213345
X156671
X139186Y210118
X137286
X134786
X132886
X130386
X128486
X125986
X124086
X124471Y213345
X125602
Y216092
X124471
X124086Y219318
X125986
X128486
X130386
X132886
X134786
X137286
X139186
Y222118
X137286
X134786
X132886
X130386
X128486
X125986
X124086
X124471Y225345
X125602
Y228092
X124471
X124086Y231318
X125986
X128486
X130386
X132886
X134786
X137286
X139186
Y234118
X137286
X134786
X132886
X130386
X128486
X125986
X124086
X124471Y237345
X125602
X128871
X130002
X133271
X134402
X137671
X138802
Y228092
X137671
Y225345
X138802
X134402
X133271
Y228092
X134402
X130002
X128871
Y225345
X130002
Y216092
X128871
Y213345
X130002
X133271
X134402
Y216092
X133271
X137671
X138802
Y213345
X137671
X120186Y210118
X118286
X115786
X113886
X111386
X109486
X106986
X105086
X105471Y213345
X106602
Y216092
X105471
X105086Y219318
X106986
X109486
X111386
X113886
X115786
X118286
X120186
Y222118
X118286
X115786
X113886
X111386
X109486
X106986
X105086
X105471Y225345
X106602
Y228092
X105471
X105086Y231318
X106986
X109486
X111386
X113886
X115786
X118286
X120186
Y234118
X118286
X115786
X113886
X111386
X109486
X106986
X105086
X105471Y237345
X106602
X109871
X111002
X114271
X115402
X118671
X119802
Y228092
X118671
Y225345
X119802
X115402
X114271
Y228092
X115402
X111002
X109871
Y225345
X111002
Y216092
X109871
Y213345
X111002
X114271
X115402
Y216092
X114271
X118671
X119802
Y213345
X118671
X101186Y210118
X099286
X096786
X094886
X092386
X090486
X087986
X086086
X086471Y213345
X087602
Y216092
X086471
X086086Y219318
X087986
X090486
X092386
X094886
X096786
X099286
X101186
Y222118
X099286
X096786
X094886
X092386
X090486
X087986
X086086
X086471Y225345
X087602
Y228092
X086471
X086086Y231318
X087986
X090486
X092386
X094886
X096786
X099286
X101186
Y234118
X099286
X096786
X094886
X092386
X090486
X087986
X086086
X086471Y237345
X087602
X090871
X092002
X095271
X096402
X099671
X100802
Y228092
X099671
Y225345
X100802
X096402
X095271
Y228092
X096402
X092002
X090871
Y225345
X092002
Y216092
X090871
Y213345
X092002
X095271
X096402
Y216092
X095271
X099671
X100802
Y213345
X099671
X082186Y210118
X080286
X077786
X075886
X073386
X071486
X068986
X067086
X067471Y213345
X068602
Y216092
X067471
X067086Y219318
X068986
X071486
X073386
X075886
X077786
X080286
X082186
Y222118
X080286
X077786
X075886
X073386
X071486
X068986
X067086
X067471Y225345
X068602
Y228092
X067471
X067086Y231318
X068986
X071486
X073386
X075886
X077786
X080286
X082186
Y234118
X080286
X077786
X075886
X073386
X071486
X068986
X067086
X067471Y237345
X068602
X071871
X073002
X076271
X077402
X080671
X081802
Y228092
X080671
Y225345
X081802
X077402
X076271
Y228092
X077402
X073002
X071871
Y225345
X073002
Y216092
X071871
Y213345
X073002
X076271
X077402
Y216092
X076271
X080671
X081802
Y213345
X080671
X063186Y210118
X061286
X058786
X056886
X054386
X052486
X049986
X048086
X048471Y213345
X049602
Y216092
X048471
X048086Y219318
X049986
X052486
X054386
X056886
X058786
X061286
X063186
Y222118
X061286
X058786
X056886
X054386
X052486
X049986
X048086
X048471Y225345
X049602
Y228092
X048471
X048086Y231318
X049986
X052486
X054386
X056886
X058786
X061286
X063186
Y234118
X061286
X058786
X056886
X054386
X052486
X049986
X048086
X048471Y237345
X049602
X052871
X054002
X057271
X058402
X061671
X062802
Y228092
X061671
Y225345
X062802
X058402
X057271
Y228092
X058402
X054002
X052871
Y225345
X054002
Y216092
X052871
Y213345
X054002
X057271
X058402
Y216092
X057271
X061671
X062802
Y213345
X061671
X044186Y210118
X042286
X039786
X037886
X035386
X033486
X030986
X029086
X029471Y213345
X030602
Y216092
X029471
X029086Y219318
X030986
X033486
X035386
X037886
X039786
X042286
X044186
Y222118
X042286
X039786
X037886
X035386
X033486
X030986
X029086
X029471Y225345
X030602
Y228092
X029471
X029086Y231318
X030986
X033486
X035386
X037886
X039786
X042286
X044186
Y234118
X042286
X039786
X037886
X035386
X033486
X030986
X029086
X029471Y237345
X030602
X033871
X035002
X038271
X039402
X042671
X043802
Y228092
X042671
Y225345
X043802
X039402
X038271
Y228092
X039402
X035002
X033871
Y225345
X035002
Y216092
X033871
Y213345
X035002
X038271
X039402
Y216092
X038271
X042671
X043802
Y213345
X042671
X025186Y210118
X023286
X020786
X018886
X016386
X014486
X011986
X010086
X010471Y213345
X011602
Y216092
X010471
X010086Y219318
X011986
X014486
X016386
X018886
X020786
X023286
X025186
Y222118
X023286
X020786
X018886
X016386
X014486
X011986
X010086
X010471Y225345
X011602
Y228092
X010471
X010086Y231318
X011986
X014486
X016386
X018886
X020786
X023286
X025186
Y234118
X023286
X020786
X018886
X016386
X014486
X011986
X010086
X010471Y237345
X011602
X014871
X016002
X019271
X020402
X023671
X024802
Y228092
X023671
Y225345
X024802
X020402
X019271
Y228092
X020402
X016002
X014871
Y225345
X016002
Y216092
X014871
Y213345
X016002
X019271
X020402
Y216092
X019271
X023671
X024802
Y213345
X023671
T03
X010086Y011968
X011986
X014486
X016386
X018886
X020786
X023286
X025186
X029086
X030986
X033486
X035386
X037886
X039786
X042286
X044186
X048086
X049986
X052486
X054386
X056886
X058786
X061286
X063186
X067086
X068986
X071486
X073386
X075886
X077786
X080286
X082186
X086086
X087986
X090486
X092386
X094886
X096786
X099286
X101186
X105086
X106986
X109486
X111386
X113886
X115786
X118286
X120186
X124086
X125986
X128486
X130386
X132886
X134786
X137286
X139186
X143086
X144986
X147486
X149386
X151886
X153786
X156286
X158186
X162086
X163986
X166486
X168386
X170886
X172786
X175286
X177186
X181086
X182986
X185486
X187386
X189886
X191786
X194286
X196186
X200086
X201986
X204486
X206386
X208886
X210786
X213286
X215186
X219086
X220986
X223486
X225386
X227886
X229786
X232286
X234186
X234036Y016468
Y017968
X232436
Y016468
X229636
Y017968
X228036
Y016468
X225236
Y017968
X223636
Y016468
X220836
Y017968
X219236
Y016468
X215036
Y017968
X213436
Y016468
X210636
Y017968
X209036
Y016468
X206236
Y017968
X204636
Y016468
X201836
Y017968
X200236
Y016468
X196036
Y017968
X194436
Y016468
X191636
Y017968
X190036
Y016468
X187236
Y017968
X185636
Y016468
X182836
Y017968
X181236
Y016468
X177036
Y017968
X175436
Y016468
X172636
Y017968
X171036
Y016468
X168236
Y017968
X166636
Y016468
X163836
Y017968
X162236
Y016468
X158036
Y017968
X156436
Y016468
X153636
Y017968
X152036
Y016468
X149236
Y017968
X147636
Y016468
X144836
Y017968
X143236
Y016468
X139036
Y017968
X137436
Y016468
X134636
Y017968
X133036
Y016468
X130236
Y017968
X128636
Y016468
X125836
Y017968
X124236
Y016468
X120036
Y017968
X118436
Y016468
X115636
Y017968
X114036
Y016468
X111236
Y017968
X109636
Y016468
X106836
Y017968
X105236
Y016468
X101036
Y017968
X099436
Y016468
X096636
Y017968
X095036
Y016468
X092236
Y017968
X090636
Y016468
X087836
Y017968
X086236
Y016468
X082036
Y017968
X080436
Y016468
X077636
Y017968
X076036
Y016468
X073236
Y017968
X071636
Y016468
X068836
Y017968
X067236
Y016468
X063036
Y017968
X061436
Y016468
X058636
Y017968
X057036
Y016468
X054236
Y017968
X052636
Y016468
X049836
Y017968
X048236
Y016468
X044036
Y017968
X042436
Y016468
X039636
Y017968
X038036
Y016468
X035236
Y017968
X033636
Y016468
X030836
Y017968
X029236
Y016468
X025036
Y017968
X023436
Y016468
X020636
Y017968
X019036
Y016468
X016236
Y017968
X014636
Y016468
X011836
Y017968
X010236
Y016468
X006786
X010086Y022468
Y023968
X011986
Y022468
X014486
Y023968
X016386
Y022468
X018886
Y023968
X020786
Y022468
X023286
Y023968
X025186
Y022468
X029086
Y023968
X030986
Y022468
X033486
Y023968
X035386
Y022468
X037886
Y023968
X039786
Y022468
X042286
Y023968
X044186
Y022468
X048086
Y023968
X049986
Y022468
X052486
Y023968
X054386
Y022468
X056886
Y023968
X058786
Y022468
X061286
Y023968
X063186
Y022468
X067086
Y023968
X068986
Y022468
X071486
Y023968
X073386
Y022468
X075886
Y023968
X077786
Y022468
X080286
Y023968
X082186
Y022468
X086086
Y023968
X087986
Y022468
X090486
Y023968
X092386
Y022468
X094886
Y023968
X096786
Y022468
X099286
Y023968
X101186
Y022468
X105086
Y023968
X106986
Y022468
X109486
Y023968
X111386
Y022468
X113886
Y023968
X115786
Y022468
X118286
Y023968
X120186
Y022468
X124086
Y023968
X125986
Y022468
X128486
Y023968
X130386
Y022468
X132886
Y023968
X134786
Y022468
X137286
Y023968
X139186
Y022468
X143086
Y023968
X144986
Y022468
X147486
Y023968
X149386
Y022468
X151886
Y023968
X153786
Y022468
X156286
Y023968
X158186
Y022468
X162086
Y023968
X163986
Y022468
X166486
Y023968
X168386
Y022468
X170886
Y023968
X172786
Y022468
X175286
Y023968
X177186
Y022468
X181086
Y023968
X182986
Y022468
X185486
Y023968
X187386
Y022468
X189886
Y023968
X191786
Y022468
X194286
Y023968
X196186
Y022468
X200086
Y023968
X201986
Y022468
X204486
Y023968
X206386
Y022468
X208886
Y023968
X210786
Y022468
X213286
Y023968
X215186
Y022468
X219086
Y023968
X220986
Y022468
X223486
Y023968
X225386
Y022468
X227886
Y023968
X229786
Y022468
X232286
Y023968
X234186
Y022468
X237652Y025967
X234036Y028468
Y029968
X232436
Y028468
X229636
Y029968
X228036
Y028468
X225236
Y029968
X223636
Y028468
X220836
Y029968
X219236
Y028468
X215036
Y029968
X213436
Y028468
X210636
Y029968
X209036
Y028468
X206236
Y029968
X204636
Y028468
X201836
Y029968
X200236
Y028468
X196036
Y029968
X194436
Y028468
X191636
Y029968
X190036
Y028468
X187236
Y029968
X185636
Y028468
X182836
Y029968
X181236
Y028468
X177036
Y029968
X175436
Y028468
X172636
Y029968
X171036
Y028468
X168236
Y029968
X166636
Y028468
X163836
Y029968
X162236
Y028468
X158036
Y029968
X156436
Y028468
X153636
Y029968
X152036
Y028468
X149236
Y029968
X147636
Y028468
X144836
Y029968
X143236
Y028468
X139036
Y029968
X137436
Y028468
X134636
Y029968
X133036
Y028468
X130236
Y029968
X128636
Y028468
X125836
Y029968
X124236
Y028468
X120036
Y029968
X118436
Y028468
X115636
Y029968
X114036
Y028468
X111236
Y029968
X109636
Y028468
X106836
Y029968
X105236
Y028468
X101036
Y029968
X099436
Y028468
X096636
Y029968
X095036
Y028468
X092236
Y029968
X090636
Y028468
X087836
Y029968
X086236
Y028468
X082036
Y029968
X080436
Y028468
X077636
Y029968
X076036
Y028468
X073236
Y029968
X071636
Y028468
X068836
Y029968
X067236
Y028468
X063036
Y029968
X061436
Y028468
X058636
Y029968
X057036
Y028468
X054236
Y029968
X052636
Y028468
X049836
Y029968
X048236
Y028468
X044036
Y029968
X042436
Y028468
X039636
Y029968
X038036
Y028468
X035236
Y029968
X033636
Y028468
X030836
Y029968
X029236
Y028468
X025036
Y029968
X023436
Y028468
X020636
Y029968
X019036
Y028468
X016236
Y029968
X014636
Y028468
X011836
Y029968
X010236
Y028468
X006786Y025968
X010086Y034468
Y035968
X011986
Y034468
X014486
Y035968
X016386
Y034468
X018886
Y035968
X020786
Y034468
X023286
Y035968
X025186
Y034468
X029086
Y035968
X030986
Y034468
X033486
Y035968
X035386
Y034468
X037886
Y035968
X039786
Y034468
X042286
Y035968
X044186
Y034468
X048086
Y035968
X049986
Y034468
X052486
Y035968
X054386
Y034468
X056886
Y035968
X058786
Y034468
X061286
Y035968
X063186
Y034468
X067086
Y035968
X068986
Y034468
X071486
Y035968
X073386
Y034468
X075886
Y035968
X077786
Y034468
X080286
Y035968
X082186
Y034468
X086086
Y035968
X087986
Y034468
X090486
Y035968
X092386
Y034468
X094886
Y035968
X096786
Y034468
X099286
Y035968
X101186
Y034468
X105086
Y035968
X106986
Y034468
X109486
Y035968
X111386
Y034468
X113886
Y035968
X115786
Y034468
X118286
Y035968
X120186
Y034468
X124086
Y035968
X125986
Y034468
X128486
Y035968
X130386
Y034468
X132886
Y035968
X134786
Y034468
X137286
Y035968
X139186
Y034468
X143086
Y035968
X144986
Y034468
X147486
Y035968
X149386
Y034468
X151886
Y035968
X153786
Y034468
X156286
Y035968
X158186
Y034468
X162086
Y035968
X163986
Y034468
X166486
Y035968
X168386
Y034468
X170886
Y035968
X172786
Y034468
X175286
Y035968
X177186
Y034468
X181086
Y035968
X182986
Y034468
X185486
Y035968
X187386
Y034468
X189886
Y035968
X191786
Y034468
X194286
Y035968
X196186
Y034468
X200086
Y035968
X201986
Y034468
X204486
Y035968
X206386
Y034468
X208886
Y035968
X210786
Y034468
X213286
Y035968
X215186
Y034468
X219086
Y035968
X220986
Y034468
X223486
Y035968
X225386
Y034468
X227886
Y035968
X229786
Y034468
X232286
Y035968
X234186
Y034468
X237652Y036967
X234036Y040468
X232436
X229636
X228036
X225236
X223636
X220836
X219236
X215036
X213436
X210636
X209036
X206236
X204636
X201836
X200236
X196036
X194436
X191636
X190036
X187236
X185636
X182836
X181236
X177036
X175436
X172636
X171036
X168236
X166636
X163836
X162236
X158036
X156436
X153636
X152036
X149236
X147636
X144836
X143236
X139036
X137436
X134636
X133036
X130236
X128636
X125836
X124236
X120036
X118436
X115636
X114036
X111236
X109636
X106836
X105236
X101036
X099436
X096636
X095036
X092236
X090636
X087836
X086236
X082036
X080436
X077636
X076036
X073236
X071636
X068836
X067236
X063036
X061436
X058636
X057036
X054236
X052636
X049836
X048236
X044036
X042436
X039636
X038036
X035236
X033636
X030836
X029236
X025036
X023436
X020636
X019036
X016236
X014636
X011836
X010236
X006786Y035968
X010086Y051468
X011986
X014486
X016386
X018886
X020786
X023286
X025186
X029086
X030986
X033486
X035386
X037886
X039786
X042286
X044186
X048086
X049986
X052486
X054386
X056886
X058786
X061286
X063186
X067086
X068986
X071486
X073386
X075886
X077786
X080286
X082186
X086086
X087986
X090486
X092386
X094886
X096786
X099286
X101186
X105086
X106986
X109486
X111386
X113886
X115786
X118286
X120186
X124086
X125986
X128486
X130386
X132886
X134786
X137286
X139186
X143086
X144986
X147486
X149386
X151886
X153786
X156286
X158186
X162086
X163986
X166486
X168386
X170886
X172786
X175286
X177186
X181086
X182986
X185486
X187386
X189886
X191786
X194286
X196186
X200086
X201986
X204486
X206386
X208886
X210786
X213286
X215186
X219086
X220986
X223486
X225386
X227886
X229786
X232286
X234186
X234036Y055968
Y057468
X232436
Y055968
X229636
Y057468
X228036
Y055968
X225236
Y057468
X223636
Y055968
X220836
Y057468
X219236
Y055968
X215036
Y057468
X213436
Y055968
X210636
Y057468
X209036
Y055968
X206236
Y057468
X204636
Y055968
X201836
Y057468
X200236
Y055968
X196036
Y057468
X194436
Y055968
X191636
Y057468
X190036
Y055968
X187236
Y057468
X185636
Y055968
X182836
Y057468
X181236
Y055968
X177036
Y057468
X175436
Y055968
X172636
Y057468
X171036
Y055968
X168236
Y057468
X166636
Y055968
X163836
Y057468
X162236
Y055968
X158036
Y057468
X156436
Y055968
X153636
Y057468
X152036
Y055968
X149236
Y057468
X147636
Y055968
X144836
Y057468
X143236
Y055968
X139036
Y057468
X137436
Y055968
X134636
Y057468
X133036
Y055968
X130236
Y057468
X128636
Y055968
X125836
Y057468
X124236
Y055968
X120036
Y057468
X118436
Y055968
X115636
Y057468
X114036
Y055968
X111236
Y057468
X109636
Y055968
X106836
Y057468
X105236
Y055968
X101036
Y057468
X099436
Y055968
X096636
Y057468
X095036
Y055968
X092236
Y057468
X090636
Y055968
X087836
Y057468
X086236
Y055968
X082036
Y057468
X080436
Y055968
X077636
Y057468
X076036
Y055968
X073236
Y057468
X071636
Y055968
X068836
Y057468
X067236
Y055968
X063036
Y057468
X061436
Y055968
X058636
Y057468
X057036
Y055968
X054236
Y057468
X052636
Y055968
X049836
Y057468
X048236
Y055968
X044036
Y057468
X042436
Y055968
X039636
Y057468
X038036
Y055968
X035236
Y057468
X033636
Y055968
X030836
Y057468
X029236
Y055968
X025036
Y057468
X023436
Y055968
X020636
Y057468
X019036
Y055968
X016236
Y057468
X014636
Y055968
X011836
Y057468
X010236
Y055968
X006786
X010086Y061968
Y063468
X011986
Y061968
X014486
Y063468
X016386
Y061968
X018886
Y063468
X020786
Y061968
X023286
Y063468
X025186
Y061968
X029086
Y063468
X030986
Y061968
X033486
Y063468
X035386
Y061968
X037886
Y063468
X039786
Y061968
X042286
Y063468
X044186
Y061968
X048086
Y063468
X049986
Y061968
X052486
Y063468
X054386
Y061968
X056886
Y063468
X058786
Y061968
X061286
Y063468
X063186
Y061968
X067086
Y063468
X068986
Y061968
X071486
Y063468
X073386
Y061968
X075886
Y063468
X077786
Y061968
X080286
Y063468
X082186
Y061968
X086086
Y063468
X087986
Y061968
X090486
Y063468
X092386
Y061968
X094886
Y063468
X096786
Y061968
X099286
Y063468
X101186
Y061968
X105086
Y063468
X106986
Y061968
X109486
Y063468
X111386
Y061968
X113886
Y063468
X115786
Y061968
X118286
Y063468
X120186
Y061968
X124086
Y063468
X125986
Y061968
X128486
Y063468
X130386
Y061968
X132886
Y063468
X134786
Y061968
X137286
Y063468
X139186
Y061968
X143086
Y063468
X144986
Y061968
X147486
Y063468
X149386
Y061968
X151886
Y063468
X153786
Y061968
X156286
Y063468
X158186
Y061968
X162086
Y063468
X163986
Y061968
X166486
Y063468
X168386
Y061968
X170886
Y063468
X172786
Y061968
X175286
Y063468
X177186
Y061968
X181086
Y063468
X182986
Y061968
X185486
Y063468
X187386
Y061968
X189886
Y063468
X191786
Y061968
X194286
Y063468
X196186
Y061968
X200086
Y063468
X201986
Y061968
X204486
Y063468
X206386
Y061968
X208886
Y063468
X210786
Y061968
X213286
Y063468
X215186
Y061968
X219086
Y063468
X220986
Y061968
X223486
Y063468
X225386
Y061968
X227886
Y063468
X229786
Y061968
X232286
Y063468
X234186
Y061968
X237652Y065467
X234036Y067968
Y069468
X232436
Y067968
X229636
Y069468
X228036
Y067968
X225236
Y069468
X223636
Y067968
X220836
Y069468
X219236
Y067968
X215036
Y069468
X213436
Y067968
X210636
Y069468
X209036
Y067968
X206236
Y069468
X204636
Y067968
X201836
Y069468
X200236
Y067968
X196036
Y069468
X194436
Y067968
X191636
Y069468
X190036
Y067968
X187236
Y069468
X185636
Y067968
X182836
Y069468
X181236
Y067968
X177036
Y069468
X175436
Y067968
X172636
Y069468
X171036
Y067968
X168236
Y069468
X166636
Y067968
X163836
Y069468
X162236
Y067968
X158036
Y069468
X156436
Y067968
X153636
Y069468
X152036
Y067968
X149236
Y069468
X147636
Y067968
X144836
Y069468
X143236
Y067968
X139036
Y069468
X137436
Y067968
X134636
Y069468
X133036
Y067968
X130236
Y069468
X128636
Y067968
X125836
Y069468
X124236
Y067968
X120036
Y069468
X118436
Y067968
X115636
Y069468
X114036
Y067968
X111236
Y069468
X109636
Y067968
X106836
Y069468
X105236
Y067968
X101036
Y069468
X099436
Y067968
X096636
Y069468
X095036
Y067968
X092236
Y069468
X090636
Y067968
X087836
Y069468
X086236
Y067968
X082036
Y069468
X080436
Y067968
X077636
Y069468
X076036
Y067968
X073236
Y069468
X071636
Y067968
X068836
Y069468
X067236
Y067968
X063036
Y069468
X061436
Y067968
X058636
Y069468
X057036
Y067968
X054236
Y069468
X052636
Y067968
X049836
Y069468
X048236
Y067968
X044036
Y069468
X042436
Y067968
X039636
Y069468
X038036
Y067968
X035236
Y069468
X033636
Y067968
X030836
Y069468
X029236
Y067968
X025036
Y069468
X023436
Y067968
X020636
Y069468
X019036
Y067968
X016236
Y069468
X014636
Y067968
X011836
Y069468
X010236
Y067968
X006786Y065468
X010086Y073968
Y075468
X011986
Y073968
X014486
Y075468
X016386
Y073968
X018886
Y075468
X020786
Y073968
X023286
Y075468
X025186
Y073968
X029086
Y075468
X030986
Y073968
X033486
Y075468
X035386
Y073968
X037886
Y075468
X039786
Y073968
X042286
Y075468
X044186
Y073968
X048086
Y075468
X049986
Y073968
X052486
Y075468
X054386
Y073968
X056886
Y075468
X058786
Y073968
X061286
Y075468
X063186
Y073968
X067086
Y075468
X068986
Y073968
X071486
Y075468
X073386
Y073968
X075886
Y075468
X077786
Y073968
X080286
Y075468
X082186
Y073968
X086086
Y075468
X087986
Y073968
X090486
Y075468
X092386
Y073968
X094886
Y075468
X096786
Y073968
X099286
Y075468
X101186
Y073968
X105086
Y075468
X106986
Y073968
X109486
Y075468
X111386
Y073968
X113886
Y075468
X115786
Y073968
X118286
Y075468
X120186
Y073968
X124086
Y075468
X125986
Y073968
X128486
Y075468
X130386
Y073968
X132886
Y075468
X134786
Y073968
X137286
Y075468
X139186
Y073968
X143086
Y075468
X144986
Y073968
X147486
Y075468
X149386
Y073968
X151886
Y075468
X153786
Y073968
X156286
Y075468
X158186
Y073968
X162086
Y075468
X163986
Y073968
X166486
Y075468
X168386
Y073968
X170886
Y075468
X172786
Y073968
X175286
Y075468
X177186
Y073968
X181086
Y075468
X182986
Y073968
X185486
Y075468
X187386
Y073968
X189886
Y075468
X191786
Y073968
X194286
Y075468
X196186
Y073968
X200086
Y075468
X201986
Y073968
X204486
Y075468
X206386
Y073968
X208886
Y075468
X210786
Y073968
X213286
Y075468
X215186
Y073968
X219086
Y075468
X220986
Y073968
X223486
Y075468
X225386
Y073968
X227886
Y075468
X229786
Y073968
X232286
Y075468
X234186
Y073968
X237652Y076467
X234036Y079968
X232436
X229636
X228036
X225236
X223636
X220836
X219236
X215036
X213436
X210636
X209036
X206236
X204636
X201836
X200236
X196036
X194436
X191636
X190036
X187236
X185636
X182836
X181236
X177036
X175436
X172636
X171036
X168236
X166636
X163836
X162236
X158036
X156436
X153636
X152036
X149236
X147636
X144836
X143236
X139036
X137436
X134636
X133036
X130236
X128636
X125836
X124236
X120036
X118436
X115636
X114036
X111236
X109636
X106836
X105236
X101036
X099436
X096636
X095036
X092236
X090636
X087836
X086236
X082036
X080436
X077636
X076036
X073236
X071636
X068836
X067236
X063036
X061436
X058636
X057036
X054236
X052636
X049836
X048236
X044036
X042436
X039636
X038036
X035236
X033636
X030836
X029236
X025036
X023436
X020636
X019036
X016236
X014636
X011836
X010236
X006786Y075468
X010086Y090968
X011986
X014486
X016386
X018886
X020786
X023286
X025186
X029086
X030986
X033486
X035386
X037886
X039786
X042286
X044186
X048086
X049986
X052486
X054386
X056886
X058786
X061286
X063186
X067086
X068986
X071486
X073386
X075886
X077786
X080286
X082186
X086086
X087986
X090486
X092386
X094886
X096786
X099286
X101186
X105086
X106986
X109486
X111386
X113886
X115786
X118286
X120186
X124086
X125986
X128486
X130386
X132886
X134786
X137286
X139186
X143086
X144986
X147486
X149386
X151886
X153786
X156286
X158186
X162086
X163986
X166486
X168386
X170886
X172786
X175286
X177186
X181086
X182986
X185486
X187386
X189886
X191786
X194286
X196186
X200086
X201986
X204486
X206386
X208886
X210786
X213286
X215186
X219086
X220986
X223486
X225386
X227886
X229786
X232286
X234186
X234036Y095468
Y096968
X232436
Y095468
X229636
Y096968
X228036
Y095468
X225236
Y096968
X223636
Y095468
X220836
Y096968
X219236
Y095468
X215036
Y096968
X213436
Y095468
X210636
Y096968
X209036
Y095468
X206236
Y096968
X204636
Y095468
X201836
Y096968
X200236
Y095468
X196036
Y096968
X194436
Y095468
X191636
Y096968
X190036
Y095468
X187236
Y096968
X185636
Y095468
X182836
Y096968
X181236
Y095468
X177036
Y096968
X175436
Y095468
X172636
Y096968
X171036
Y095468
X168236
Y096968
X166636
Y095468
X163836
Y096968
X162236
Y095468
X158036
Y096968
X156436
Y095468
X153636
Y096968
X152036
Y095468
X149236
Y096968
X147636
Y095468
X144836
Y096968
X143236
Y095468
X139036
Y096968
X137436
Y095468
X134636
Y096968
X133036
Y095468
X130236
Y096968
X128636
Y095468
X125836
Y096968
X124236
Y095468
X120036
Y096968
X118436
Y095468
X115636
Y096968
X114036
Y095468
X111236
Y096968
X109636
Y095468
X106836
Y096968
X105236
Y095468
X101036
Y096968
X099436
Y095468
X096636
Y096968
X095036
Y095468
X092236
Y096968
X090636
Y095468
X087836
Y096968
X086236
Y095468
X082036
Y096968
X080436
Y095468
X077636
Y096968
X076036
Y095468
X073236
Y096968
X071636
Y095468
X068836
Y096968
X067236
Y095468
X063036
Y096968
X061436
Y095468
X058636
Y096968
X057036
Y095468
X054236
Y096968
X052636
Y095468
X049836
Y096968
X048236
Y095468
X044036
Y096968
X042436
Y095468
X039636
Y096968
X038036
Y095468
X035236
Y096968
X033636
Y095468
X030836
Y096968
X029236
Y095468
X025036
Y096968
X023436
Y095468
X020636
Y096968
X019036
Y095468
X016236
Y096968
X014636
Y095468
X011836
Y096968
X010236
Y095468
X006786
X010086Y101468
Y102968
X011986
Y101468
X014486
Y102968
X016386
Y101468
X018886
Y102968
X020786
Y101468
X023286
Y102968
X025186
Y101468
X029086
Y102968
X030986
Y101468
X033486
Y102968
X035386
Y101468
X037886
Y102968
X039786
Y101468
X042286
Y102968
X044186
Y101468
X048086
Y102968
X049986
Y101468
X052486
Y102968
X054386
Y101468
X056886
Y102968
X058786
Y101468
X061286
Y102968
X063186
Y101468
X067086
Y102968
X068986
Y101468
X071486
Y102968
X073386
Y101468
X075886
Y102968
X077786
Y101468
X080286
Y102968
X082186
Y101468
X086086
Y102968
X087986
Y101468
X090486
Y102968
X092386
Y101468
X094886
Y102968
X096786
Y101468
X099286
Y102968
X101186
Y101468
X105086
Y102968
X106986
Y101468
X109486
Y102968
X111386
Y101468
X113886
Y102968
X115786
Y101468
X118286
Y102968
X120186
Y101468
X124086
Y102968
X125986
Y101468
X128486
Y102968
X130386
Y101468
X132886
Y102968
X134786
Y101468
X137286
Y102968
X139186
Y101468
X143086
Y102968
X144986
Y101468
X147486
Y102968
X149386
Y101468
X151886
Y102968
X153786
Y101468
X156286
Y102968
X158186
Y101468
X162086
Y102968
X163986
Y101468
X166486
Y102968
X168386
Y101468
X170886
Y102968
X172786
Y101468
X175286
Y102968
X177186
Y101468
X181086
Y102968
X182986
Y101468
X185486
Y102968
X187386
Y101468
X189886
Y102968
X191786
Y101468
X194286
Y102968
X196186
Y101468
X200086
Y102968
X201986
Y101468
X204486
Y102968
X206386
Y101468
X208886
Y102968
X210786
Y101468
X213286
Y102968
X215186
Y101468
X219086
Y102968
X220986
Y101468
X223486
Y102968
X225386
Y101468
X227886
Y102968
X229786
Y101468
X232286
Y102968
X234186
Y101468
X237652Y104967
X234036Y107468
Y108968
X232436
Y107468
X229636
Y108968
X228036
Y107468
X225236
Y108968
X223636
Y107468
X220836
Y108968
X219236
Y107468
X215036
Y108968
X213436
Y107468
X210636
Y108968
X209036
Y107468
X206236
Y108968
X204636
Y107468
X201836
Y108968
X200236
Y107468
X196036
Y108968
X194436
Y107468
X191636
Y108968
X190036
Y107468
X187236
Y108968
X185636
Y107468
X182836
Y108968
X181236
Y107468
X177036
Y108968
X175436
Y107468
X172636
Y108968
X171036
Y107468
X168236
Y108968
X166636
Y107468
X163836
Y108968
X162236
Y107468
X158036
Y108968
X156436
Y107468
X153636
Y108968
X152036
Y107468
X149236
Y108968
X147636
Y107468
X144836
Y108968
X143236
Y107468
X139036
Y108968
X137436
Y107468
X134636
Y108968
X133036
Y107468
X130236
Y108968
X128636
Y107468
X125836
Y108968
X124236
Y107468
X120036
Y108968
X118436
Y107468
X115636
Y108968
X114036
Y107468
X111236
Y108968
X109636
Y107468
X106836
Y108968
X105236
Y107468
X101036
Y108968
X099436
Y107468
X096636
Y108968
X095036
Y107468
X092236
Y108968
X090636
Y107468
X087836
Y108968
X086236
Y107468
X082036
Y108968
X080436
Y107468
X077636
Y108968
X076036
Y107468
X073236
Y108968
X071636
Y107468
X068836
Y108968
X067236
Y107468
X063036
Y108968
X061436
Y107468
X058636
Y108968
X057036
Y107468
X054236
Y108968
X052636
Y107468
X049836
Y108968
X048236
Y107468
X044036
Y108968
X042436
Y107468
X039636
Y108968
X038036
Y107468
X035236
Y108968
X033636
Y107468
X030836
Y108968
X029236
Y107468
X025036
Y108968
X023436
Y107468
X020636
Y108968
X019036
Y107468
X016236
Y108968
X014636
Y107468
X011836
Y108968
X010236
Y107468
X006786Y104968
X010086Y113468
Y114968
X011986
Y113468
X014486
Y114968
X016386
Y113468
X018886
Y114968
X020786
Y113468
X023286
Y114968
X025186
Y113468
X029086
Y114968
X030986
Y113468
X033486
Y114968
X035386
Y113468
X037886
Y114968
X039786
Y113468
X042286
Y114968
X044186
Y113468
X048086
Y114968
X049986
Y113468
X052486
Y114968
X054386
Y113468
X056886
Y114968
X058786
Y113468
X061286
Y114968
X063186
Y113468
X067086
Y114968
X068986
Y113468
X071486
Y114968
X073386
Y113468
X075886
Y114968
X077786
Y113468
X080286
Y114968
X082186
Y113468
X086086
Y114968
X087986
Y113468
X090486
Y114968
X092386
Y113468
X094886
Y114968
X096786
Y113468
X099286
Y114968
X101186
Y113468
X105086
Y114968
X106986
Y113468
X109486
Y114968
X111386
Y113468
X113886
Y114968
X115786
Y113468
X118286
Y114968
X120186
Y113468
X124086
Y114968
X125986
Y113468
X128486
Y114968
X130386
Y113468
X132886
Y114968
X134786
Y113468
X137286
Y114968
X139186
Y113468
X143086
Y114968
X144986
Y113468
X147486
Y114968
X149386
Y113468
X151886
Y114968
X153786
Y113468
X156286
Y114968
X158186
Y113468
X162086
Y114968
X163986
Y113468
X166486
Y114968
X168386
Y113468
X170886
Y114968
X172786
Y113468
X175286
Y114968
X177186
Y113468
X181086
Y114968
X182986
Y113468
X185486
Y114968
X187386
Y113468
X189886
Y114968
X191786
Y113468
X194286
Y114968
X196186
Y113468
X200086
Y114968
X201986
Y113468
X204486
Y114968
X206386
Y113468
X208886
Y114968
X210786
Y113468
X213286
Y114968
X215186
Y113468
X219086
Y114968
X220986
Y113468
X223486
Y114968
X225386
Y113468
X227886
Y114968
X229786
Y113468
X232286
Y114968
X234186
Y113468
X237652Y115967
X234036Y119468
X232436
X229636
X228036
X225236
X223636
X220836
X219236
X215036
X213436
X210636
X209036
X206236
X204636
X201836
X200236
X196036
X194436
X191636
X190036
X187236
X185636
X182836
X181236
X177036
X175436
X172636
X171036
X168236
X166636
X163836
X162236
X158036
X156436
X153636
X152036
X149236
X147636
X144836
X143236
X139036
X137436
X134636
X133036
X130236
X128636
X125836
X124236
X120036
X118436
X115636
X114036
X111236
X109636
X106836
X105236
X101036
X099436
X096636
X095036
X092236
X090636
X087836
X086236
X082036
X080436
X077636
X076036
X073236
X071636
X068836
X067236
X063036
X061436
X058636
X057036
X054236
X052636
X049836
X048236
X044036
X042436
X039636
X038036
X035236
X033636
X030836
X029236
X025036
X023436
X020636
X019036
X016236
X014636
X011836
X010236
X006786Y114968
X010086Y130468
X011986
X014486
X016386
X018886
X020786
X023286
X025186
X029086
X030986
X033486
X035386
X037886
X039786
X042286
X044186
X048086
X049986
X052486
X054386
X056886
X058786
X061286
X063186
X067086
X068986
X071486
X073386
X075886
X077786
X080286
X082186
X086086
X087986
X090486
X092386
X094886
X096786
X099286
X101186
X105086
X106986
X109486
X111386
X113886
X115786
X118286
X120186
X124086
X125986
X128486
X130386
X132886
X134786
X137286
X139186
X143086
X144986
X147486
X149386
X151886
X153786
X156286
X158186
X162086
X163986
X166486
X168386
X170886
X172786
X175286
X177186
X181086
X182986
X185486
X187386
X189886
X191786
X194286
X196186
X200086
X201986
X204486
X206386
X208886
X210786
X213286
X215186
X219086
X220986
X223486
X225386
X227886
X229786
X232286
X234186
X234036Y134968
Y136468
X232436
Y134968
X229636
Y136468
X228036
Y134968
X225236
Y136468
X223636
Y134968
X220836
Y136468
X219236
Y134968
X215036
Y136468
X213436
Y134968
X210636
Y136468
X209036
Y134968
X206236
Y136468
X204636
Y134968
X201836
Y136468
X200236
Y134968
X196036
Y136468
X194436
Y134968
X191636
Y136468
X190036
Y134968
X187236
Y136468
X185636
Y134968
X182836
Y136468
X181236
Y134968
X177036
Y136468
X175436
Y134968
X172636
Y136468
X171036
Y134968
X168236
Y136468
X166636
Y134968
X163836
Y136468
X162236
Y134968
X158036
Y136468
X156436
Y134968
X153636
Y136468
X152036
Y134968
X149236
Y136468
X147636
Y134968
X144836
Y136468
X143236
Y134968
X139036
Y136468
X137436
Y134968
X134636
Y136468
X133036
Y134968
X130236
Y136468
X128636
Y134968
X125836
Y136468
X124236
Y134968
X120036
Y136468
X118436
Y134968
X115636
Y136468
X114036
Y134968
X111236
Y136468
X109636
Y134968
X106836
Y136468
X105236
Y134968
X101036
Y136468
X099436
Y134968
X096636
Y136468
X095036
Y134968
X092236
Y136468
X090636
Y134968
X087836
Y136468
X086236
Y134968
X082036
Y136468
X080436
Y134968
X077636
Y136468
X076036
Y134968
X073236
Y136468
X071636
Y134968
X068836
Y136468
X067236
Y134968
X063036
Y136468
X061436
Y134968
X058636
Y136468
X057036
Y134968
X054236
Y136468
X052636
Y134968
X049836
Y136468
X048236
Y134968
X044036
Y136468
X042436
Y134968
X039636
Y136468
X038036
Y134968
X035236
Y136468
X033636
Y134968
X030836
Y136468
X029236
Y134968
X025036
Y136468
X023436
Y134968
X020636
Y136468
X019036
Y134968
X016236
Y136468
X014636
Y134968
X011836
Y136468
X010236
Y134968
X006786
X010086Y140968
Y142468
X011986
Y140968
X014486
Y142468
X016386
Y140968
X018886
Y142468
X020786
Y140968
X023286
Y142468
X025186
Y140968
X029086
Y142468
X030986
Y140968
X033486
Y142468
X035386
Y140968
X037886
Y142468
X039786
Y140968
X042286
Y142468
X044186
Y140968
X048086
Y142468
X049986
Y140968
X052486
Y142468
X054386
Y140968
X056886
Y142468
X058786
Y140968
X061286
Y142468
X063186
Y140968
X067086
Y142468
X068986
Y140968
X071486
Y142468
X073386
Y140968
X075886
Y142468
X077786
Y140968
X080286
Y142468
X082186
Y140968
X086086
Y142468
X087986
Y140968
X090486
Y142468
X092386
Y140968
X094886
Y142468
X096786
Y140968
X099286
Y142468
X101186
Y140968
X105086
Y142468
X106986
Y140968
X109486
Y142468
X111386
Y140968
X113886
Y142468
X115786
Y140968
X118286
Y142468
X120186
Y140968
X124086
Y142468
X125986
Y140968
X128486
Y142468
X130386
Y140968
X132886
Y142468
X134786
Y140968
X137286
Y142468
X139186
Y140968
X143086
Y142468
X144986
Y140968
X147486
Y142468
X149386
Y140968
X151886
Y142468
X153786
Y140968
X156286
Y142468
X158186
Y140968
X162086
Y142468
X163986
Y140968
X166486
Y142468
X168386
Y140968
X170886
Y142468
X172786
Y140968
X175286
Y142468
X177186
Y140968
X181086
Y142468
X182986
Y140968
X185486
Y142468
X187386
Y140968
X189886
Y142468
X191786
Y140968
X194286
Y142468
X196186
Y140968
X200086
Y142468
X201986
Y140968
X204486
Y142468
X206386
Y140968
X208886
Y142468
X210786
Y140968
X213286
Y142468
X215186
Y140968
X219086
Y142468
X220986
Y140968
X223486
Y142468
X225386
Y140968
X227886
Y142468
X229786
Y140968
X232286
Y142468
X234186
Y140968
X237652Y144467
X234036Y146968
Y148468
X232436
Y146968
X229636
Y148468
X228036
Y146968
X225236
Y148468
X223636
Y146968
X220836
Y148468
X219236
Y146968
X215036
Y148468
X213436
Y146968
X210636
Y148468
X209036
Y146968
X206236
Y148468
X204636
Y146968
X201836
Y148468
X200236
Y146968
X196036
Y148468
X194436
Y146968
X191636
Y148468
X190036
Y146968
X187236
Y148468
X185636
Y146968
X182836
Y148468
X181236
Y146968
X177036
Y148468
X175436
Y146968
X172636
Y148468
X171036
Y146968
X168236
Y148468
X166636
Y146968
X163836
Y148468
X162236
Y146968
X158036
Y148468
X156436
Y146968
X153636
Y148468
X152036
Y146968
X149236
Y148468
X147636
Y146968
X144836
Y148468
X143236
Y146968
X139036
Y148468
X137436
Y146968
X134636
Y148468
X133036
Y146968
X130236
Y148468
X128636
Y146968
X125836
Y148468
X124236
Y146968
X120036
Y148468
X118436
Y146968
X115636
Y148468
X114036
Y146968
X111236
Y148468
X109636
Y146968
X106836
Y148468
X105236
Y146968
X101036
Y148468
X099436
Y146968
X096636
Y148468
X095036
Y146968
X092236
Y148468
X090636
Y146968
X087836
Y148468
X086236
Y146968
X082036
Y148468
X080436
Y146968
X077636
Y148468
X076036
Y146968
X073236
Y148468
X071636
Y146968
X068836
Y148468
X067236
Y146968
X063036
Y148468
X061436
Y146968
X058636
Y148468
X057036
Y146968
X054236
Y148468
X052636
Y146968
X049836
Y148468
X048236
Y146968
X044036
Y148468
X042436
Y146968
X039636
Y148468
X038036
Y146968
X035236
Y148468
X033636
Y146968
X030836
Y148468
X029236
Y146968
X025036
Y148468
X023436
Y146968
X020636
Y148468
X019036
Y146968
X016236
Y148468
X014636
Y146968
X011836
Y148468
X010236
Y146968
X006786Y144468
X010086Y152968
Y154468
X011986
Y152968
X014486
Y154468
X016386
Y152968
X018886
Y154468
X020786
Y152968
X023286
Y154468
X025186
Y152968
X029086
Y154468
X030986
Y152968
X033486
Y154468
X035386
Y152968
X037886
Y154468
X039786
Y152968
X042286
Y154468
X044186
Y152968
X048086
Y154468
X049986
Y152968
X052486
Y154468
X054386
Y152968
X056886
Y154468
X058786
Y152968
X061286
Y154468
X063186
Y152968
X067086
Y154468
X068986
Y152968
X071486
Y154468
X073386
Y152968
X075886
Y154468
X077786
Y152968
X080286
Y154468
X082186
Y152968
X086086
Y154468
X087986
Y152968
X090486
Y154468
X092386
Y152968
X094886
Y154468
X096786
Y152968
X099286
Y154468
X101186
Y152968
X105086
Y154468
X106986
Y152968
X109486
Y154468
X111386
Y152968
X113886
Y154468
X115786
Y152968
X118286
Y154468
X120186
Y152968
X124086
Y154468
X125986
Y152968
X128486
Y154468
X130386
Y152968
X132886
Y154468
X134786
Y152968
X137286
Y154468
X139186
Y152968
X143086
Y154468
X144986
Y152968
X147486
Y154468
X149386
Y152968
X151886
Y154468
X153786
Y152968
X156286
Y154468
X158186
Y152968
X162086
Y154468
X163986
Y152968
X166486
Y154468
X168386
Y152968
X170886
Y154468
X172786
Y152968
X175286
Y154468
X177186
Y152968
X181086
Y154468
X182986
Y152968
X185486
Y154468
X187386
Y152968
X189886
Y154468
X191786
Y152968
X194286
Y154468
X196186
Y152968
X200086
Y154468
X201986
Y152968
X204486
Y154468
X206386
Y152968
X208886
Y154468
X210786
Y152968
X213286
Y154468
X215186
Y152968
X219086
Y154468
X220986
Y152968
X223486
Y154468
X225386
Y152968
X227886
Y154468
X229786
Y152968
X232286
Y154468
X234186
Y152968
X237652Y155467
X234036Y158968
X232436
X229636
X228036
X225236
X223636
X220836
X219236
X215036
X213436
X210636
X209036
X206236
X204636
X201836
X200236
X196036
X194436
X191636
X190036
X187236
X185636
X182836
X181236
X177036
X175436
X172636
X171036
X168236
X166636
X163836
X162236
X158036
X156436
X153636
X152036
X149236
X147636
X144836
X143236
X139036
X137436
X134636
X133036
X130236
X128636
X125836
X124236
X120036
X118436
X115636
X114036
X111236
X109636
X106836
X105236
X101036
X099436
X096636
X095036
X092236
X090636
X087836
X086236
X082036
X080436
X077636
X076036
X073236
X071636
X068836
X067236
X063036
X061436
X058636
X057036
X054236
X052636
X049836
X048236
X044036
X042436
X039636
X038036
X035236
X033636
X030836
X029236
X025036
X023436
X020636
X019036
X016236
X014636
X011836
X010236
X006786Y154468
X010086Y169968
X011986
X014486
X016386
X018886
X020786
X023286
X025186
X029086
X030986
X033486
X035386
X037886
X039786
X042286
X044186
X048086
X049986
X052486
X054386
X056886
X058786
X061286
X063186
X067086
X068986
X071486
X073386
X075886
X077786
X080286
X082186
X086086
X087986
X090486
X092386
X094886
X096786
X099286
X101186
X105086
X106986
X109486
X111386
X113886
X115786
X118286
X120186
X124086
X125986
X128486
X130386
X132886
X134786
X137286
X139186
X143086
X144986
X147486
X149386
X151886
X153786
X156286
X158186
X162086
X163986
X166486
X168386
X170886
X172786
X175286
X177186
X181086
X182986
X185486
X187386
X189886
X191786
X194286
X196186
X200086
X201986
X204486
X206386
X208886
X210786
X213286
X215186
X219086
X220986
X223486
X225386
X227886
X229786
X232286
X234186
X234036Y174468
Y175968
X232436
Y174468
X229636
Y175968
X228036
Y174468
X225236
Y175968
X223636
Y174468
X220836
Y175968
X219236
Y174468
X215036
Y175968
X213436
Y174468
X210636
Y175968
X209036
Y174468
X206236
Y175968
X204636
Y174468
X201836
Y175968
X200236
Y174468
X196036
Y175968
X194436
Y174468
X191636
Y175968
X190036
Y174468
X187236
Y175968
X185636
Y174468
X182836
Y175968
X181236
Y174468
X177036
Y175968
X175436
Y174468
X172636
Y175968
X171036
Y174468
X168236
Y175968
X166636
Y174468
X163836
Y175968
X162236
Y174468
X158036
Y175968
X156436
Y174468
X153636
Y175968
X152036
Y174468
X149236
Y175968
X147636
Y174468
X144836
Y175968
X143236
Y174468
X139036
Y175968
X137436
Y174468
X134636
Y175968
X133036
Y174468
X130236
Y175968
X128636
Y174468
X125836
Y175968
X124236
Y174468
X120036
Y175968
X118436
Y174468
X115636
Y175968
X114036
Y174468
X111236
Y175968
X109636
Y174468
X106836
Y175968
X105236
Y174468
X101036
Y175968
X099436
Y174468
X096636
Y175968
X095036
Y174468
X092236
Y175968
X090636
Y174468
X087836
Y175968
X086236
Y174468
X082036
Y175968
X080436
Y174468
X077636
Y175968
X076036
Y174468
X073236
Y175968
X071636
Y174468
X068836
Y175968
X067236
Y174468
X063036
Y175968
X061436
Y174468
X058636
Y175968
X057036
Y174468
X054236
Y175968
X052636
Y174468
X049836
Y175968
X048236
Y174468
X044036
Y175968
X042436
Y174468
X039636
Y175968
X038036
Y174468
X035236
Y175968
X033636
Y174468
X030836
Y175968
X029236
Y174468
X025036
Y175968
X023436
Y174468
X020636
Y175968
X019036
Y174468
X016236
Y175968
X014636
Y174468
X011836
Y175968
X010236
Y174468
X006786
X010086Y180468
Y181968
X011986
Y180468
X014486
Y181968
X016386
Y180468
X018886
Y181968
X020786
Y180468
X023286
Y181968
X025186
Y180468
X029086
Y181968
X030986
Y180468
X033486
Y181968
X035386
Y180468
X037886
Y181968
X039786
Y180468
X042286
Y181968
X044186
Y180468
X048086
Y181968
X049986
Y180468
X052486
Y181968
X054386
Y180468
X056886
Y181968
X058786
Y180468
X061286
Y181968
X063186
Y180468
X067086
Y181968
X068986
Y180468
X071486
Y181968
X073386
Y180468
X075886
Y181968
X077786
Y180468
X080286
Y181968
X082186
Y180468
X086086
Y181968
X087986
Y180468
X090486
Y181968
X092386
Y180468
X094886
Y181968
X096786
Y180468
X099286
Y181968
X101186
Y180468
X105086
Y181968
X106986
Y180468
X109486
Y181968
X111386
Y180468
X113886
Y181968
X115786
Y180468
X118286
Y181968
X120186
Y180468
X124086
Y181968
X125986
Y180468
X128486
Y181968
X130386
Y180468
X132886
Y181968
X134786
Y180468
X137286
Y181968
X139186
Y180468
X143086
Y181968
X144986
Y180468
X147486
Y181968
X149386
Y180468
X151886
Y181968
X153786
Y180468
X156286
Y181968
X158186
Y180468
X162086
Y181968
X163986
Y180468
X166486
Y181968
X168386
Y180468
X170886
Y181968
X172786
Y180468
X175286
Y181968
X177186
Y180468
X181086
Y181968
X182986
Y180468
X185486
Y181968
X187386
Y180468
X189886
Y181968
X191786
Y180468
X194286
Y181968
X196186
Y180468
X200086
Y181968
X201986
Y180468
X204486
Y181968
X206386
Y180468
X208886
Y181968
X210786
Y180468
X213286
Y181968
X215186
Y180468
X219086
Y181968
X220986
Y180468
X223486
Y181968
X225386
Y180468
X227886
Y181968
X229786
Y180468
X232286
Y181968
X234186
Y180468
X237652Y183967
X234036Y186468
Y187968
X232436
Y186468
X229636
Y187968
X228036
Y186468
X225236
Y187968
X223636
Y186468
X220836
Y187968
X219236
Y186468
X215036
Y187968
X213436
Y186468
X210636
Y187968
X209036
Y186468
X206236
Y187968
X204636
Y186468
X201836
Y187968
X200236
Y186468
X196036
Y187968
X194436
Y186468
X191636
Y187968
X190036
Y186468
X187236
Y187968
X185636
Y186468
X182836
Y187968
X181236
Y186468
X177036
Y187968
X175436
Y186468
X172636
Y187968
X171036
Y186468
X168236
Y187968
X166636
Y186468
X163836
Y187968
X162236
Y186468
X158036
Y187968
X156436
Y186468
X153636
Y187968
X152036
Y186468
X149236
Y187968
X147636
Y186468
X144836
Y187968
X143236
Y186468
X139036
Y187968
X137436
Y186468
X134636
Y187968
X133036
Y186468
X130236
Y187968
X128636
Y186468
X125836
Y187968
X124236
Y186468
X120036
Y187968
X118436
Y186468
X115636
Y187968
X114036
Y186468
X111236
Y187968
X109636
Y186468
X106836
Y187968
X105236
Y186468
X101036
Y187968
X099436
Y186468
X096636
Y187968
X095036
Y186468
X092236
Y187968
X090636
Y186468
X087836
Y187968
X086236
Y186468
X082036
Y187968
X080436
Y186468
X077636
Y187968
X076036
Y186468
X073236
Y187968
X071636
Y186468
X068836
Y187968
X067236
Y186468
X063036
Y187968
X061436
Y186468
X058636
Y187968
X057036
Y186468
X054236
Y187968
X052636
Y186468
X049836
Y187968
X048236
Y186468
X044036
Y187968
X042436
Y186468
X039636
Y187968
X038036
Y186468
X035236
Y187968
X033636
Y186468
X030836
Y187968
X029236
Y186468
X025036
Y187968
X023436
Y186468
X020636
Y187968
X019036
Y186468
X016236
Y187968
X014636
Y186468
X011836
Y187968
X010236
Y186468
X006786Y183968
X010086Y192468
Y193968
X011986
Y192468
X014486
Y193968
X016386
Y192468
X018886
Y193968
X020786
Y192468
X023286
Y193968
X025186
Y192468
X029086
Y193968
X030986
Y192468
X033486
Y193968
X035386
Y192468
X037886
Y193968
X039786
Y192468
X042286
Y193968
X044186
Y192468
X048086
Y193968
X049986
Y192468
X052486
Y193968
X054386
Y192468
X056886
Y193968
X058786
Y192468
X061286
Y193968
X063186
Y192468
X067086
Y193968
X068986
Y192468
X071486
Y193968
X073386
Y192468
X075886
Y193968
X077786
Y192468
X080286
Y193968
X082186
Y192468
X086086
Y193968
X087986
Y192468
X090486
Y193968
X092386
Y192468
X094886
Y193968
X096786
Y192468
X099286
Y193968
X101186
Y192468
X105086
Y193968
X106986
Y192468
X109486
Y193968
X111386
Y192468
X113886
Y193968
X115786
Y192468
X118286
Y193968
X120186
Y192468
X124086
Y193968
X125986
Y192468
X128486
Y193968
X130386
Y192468
X132886
Y193968
X134786
Y192468
X137286
Y193968
X139186
Y192468
X143086
Y193968
X144986
Y192468
X147486
Y193968
X149386
Y192468
X151886
Y193968
X153786
Y192468
X156286
Y193968
X158186
Y192468
X162086
Y193968
X163986
Y192468
X166486
Y193968
X168386
Y192468
X170886
Y193968
X172786
Y192468
X175286
Y193968
X177186
Y192468
X181086
Y193968
X182986
Y192468
X185486
Y193968
X187386
Y192468
X189886
Y193968
X191786
Y192468
X194286
Y193968
X196186
Y192468
X200086
Y193968
X201986
Y192468
X204486
Y193968
X206386
Y192468
X208886
Y193968
X210786
Y192468
X213286
Y193968
X215186
Y192468
X219086
Y193968
X220986
Y192468
X223486
Y193968
X225386
Y192468
X227886
Y193968
X229786
Y192468
X232286
Y193968
X234186
Y192468
X237652Y194967
X234036Y198468
X232436
X229636
X228036
X225236
X223636
X220836
X219236
X215036
X213436
X210636
X209036
X206236
X204636
X201836
X200236
X196036
X194436
X191636
X190036
X187236
X185636
X182836
X181236
X177036
X175436
X172636
X171036
X168236
X166636
X163836
X162236
X158036
X156436
X153636
X152036
X149236
X147636
X144836
X143236
X139036
X137436
X134636
X133036
X130236
X128636
X125836
X124236
X120036
X118436
X115636
X114036
X111236
X109636
X106836
X105236
X101036
X099436
X096636
X095036
X092236
X090636
X087836
X086236
X082036
X080436
X077636
X076036
X073236
X071636
X068836
X067236
X063036
X061436
X058636
X057036
X054236
X052636
X049836
X048236
X044036
X042436
X039636
X038036
X035236
X033636
X030836
X029236
X025036
X023436
X020636
X019036
X016236
X014636
X011836
X010236
X006786Y193968
X010086Y209468
X011986
X014486
X016386
X018886
X020786
X023286
X025186
X029086
X030986
X033486
X035386
X037886
X039786
X042286
X044186
X048086
X049986
X052486
X054386
X056886
X058786
X061286
X063186
X067086
X068986
X071486
X073386
X075886
X077786
X080286
X082186
X086086
X087986
X090486
X092386
X094886
X096786
X099286
X101186
X105086
X106986
X109486
X111386
X113886
X115786
X118286
X120186
X124086
X125986
X128486
X130386
X132886
X134786
X137286
X139186
X143086
X144986
X147486
X149386
X151886
X153786
X156286
X158186
X162086
X163986
X166486
X168386
X170886
X172786
X175286
X177186
X181086
X182986
X185486
X187386
X189886
X191786
X194286
X196186
X200086
X201986
X204486
X206386
X208886
X210786
X213286
X215186
X219086
X220986
X223486
X225386
X227886
X229786
X232286
X234186
X234036Y213968
Y215468
X232436
Y213968
X229636
Y215468
X228036
Y213968
X225236
Y215468
X223636
Y213968
X220836
Y215468
X219236
Y213968
X215036
Y215468
X213436
Y213968
X210636
Y215468
X209036
Y213968
X206236
Y215468
X204636
Y213968
X201836
Y215468
X200236
Y213968
X196036
Y215468
X194436
Y213968
X191636
Y215468
X190036
Y213968
X187236
Y215468
X185636
Y213968
X182836
Y215468
X181236
Y213968
X177036
Y215468
X175436
Y213968
X172636
Y215468
X171036
Y213968
X168236
Y215468
X166636
Y213968
X163836
Y215468
X162236
Y213968
X158036
Y215468
X156436
Y213968
X153636
Y215468
X152036
Y213968
X149236
Y215468
X147636
Y213968
X144836
Y215468
X143236
Y213968
X139036
Y215468
X137436
Y213968
X134636
Y215468
X133036
Y213968
X130236
Y215468
X128636
Y213968
X125836
Y215468
X124236
Y213968
X120036
Y215468
X118436
Y213968
X115636
Y215468
X114036
Y213968
X111236
Y215468
X109636
Y213968
X106836
Y215468
X105236
Y213968
X101036
Y215468
X099436
Y213968
X096636
Y215468
X095036
Y213968
X092236
Y215468
X090636
Y213968
X087836
Y215468
X086236
Y213968
X082036
Y215468
X080436
Y213968
X077636
Y215468
X076036
Y213968
X073236
Y215468
X071636
Y213968
X068836
Y215468
X067236
Y213968
X063036
Y215468
X061436
Y213968
X058636
Y215468
X057036
Y213968
X054236
Y215468
X052636
Y213968
X049836
Y215468
X048236
Y213968
X044036
Y215468
X042436
Y213968
X039636
Y215468
X038036
Y213968
X035236
Y215468
X033636
Y213968
X030836
Y215468
X029236
Y213968
X025036
Y215468
X023436
Y213968
X020636
Y215468
X019036
Y213968
X016236
Y215468
X014636
Y213968
X011836
Y215468
X010236
Y213968
X006786
X010086Y219968
Y221468
X011986
Y219968
X014486
Y221468
X016386
Y219968
X018886
Y221468
X020786
Y219968
X023286
Y221468
X025186
Y219968
X029086
Y221468
X030986
Y219968
X033486
Y221468
X035386
Y219968
X037886
Y221468
X039786
Y219968
X042286
Y221468
X044186
Y219968
X048086
Y221468
X049986
Y219968
X052486
Y221468
X054386
Y219968
X056886
Y221468
X058786
Y219968
X061286
Y221468
X063186
Y219968
X067086
Y221468
X068986
Y219968
X071486
Y221468
X073386
Y219968
X075886
Y221468
X077786
Y219968
X080286
Y221468
X082186
Y219968
X086086
Y221468
X087986
Y219968
X090486
Y221468
X092386
Y219968
X094886
Y221468
X096786
Y219968
X099286
Y221468
X101186
Y219968
X105086
Y221468
X106986
Y219968
X109486
Y221468
X111386
Y219968
X113886
Y221468
X115786
Y219968
X118286
Y221468
X120186
Y219968
X124086
Y221468
X125986
Y219968
X128486
Y221468
X130386
Y219968
X132886
Y221468
X134786
Y219968
X137286
Y221468
X139186
Y219968
X143086
Y221468
X144986
Y219968
X147486
Y221468
X149386
Y219968
X151886
Y221468
X153786
Y219968
X156286
Y221468
X158186
Y219968
X162086
Y221468
X163986
Y219968
X166486
Y221468
X168386
Y219968
X170886
Y221468
X172786
Y219968
X175286
Y221468
X177186
Y219968
X181086
Y221468
X182986
Y219968
X185486
Y221468
X187386
Y219968
X189886
Y221468
X191786
Y219968
X194286
Y221468
X196186
Y219968
X200086
Y221468
X201986
Y219968
X204486
Y221468
X206386
Y219968
X208886
Y221468
X210786
Y219968
X213286
Y221468
X215186
Y219968
X219086
Y221468
X220986
Y219968
X223486
Y221468
X225386
Y219968
X227886
Y221468
X229786
Y219968
X232286
Y221468
X234186
Y219968
X237652Y223467
X234036Y225968
Y227468
X232436
Y225968
X229636
Y227468
X228036
Y225968
X225236
Y227468
X223636
Y225968
X220836
Y227468
X219236
Y225968
X215036
Y227468
X213436
Y225968
X210636
Y227468
X209036
Y225968
X206236
Y227468
X204636
Y225968
X201836
Y227468
X200236
Y225968
X196036
Y227468
X194436
Y225968
X191636
Y227468
X190036
Y225968
X187236
Y227468
X185636
Y225968
X182836
Y227468
X181236
Y225968
X177036
Y227468
X175436
Y225968
X172636
Y227468
X171036
Y225968
X168236
Y227468
X166636
Y225968
X163836
Y227468
X162236
Y225968
X158036
Y227468
X156436
Y225968
X153636
Y227468
X152036
Y225968
X149236
Y227468
X147636
Y225968
X144836
Y227468
X143236
Y225968
X139036
Y227468
X137436
Y225968
X134636
Y227468
X133036
Y225968
X130236
Y227468
X128636
Y225968
X125836
Y227468
X124236
Y225968
X120036
Y227468
X118436
Y225968
X115636
Y227468
X114036
Y225968
X111236
Y227468
X109636
Y225968
X106836
Y227468
X105236
Y225968
X101036
Y227468
X099436
Y225968
X096636
Y227468
X095036
Y225968
X092236
Y227468
X090636
Y225968
X087836
Y227468
X086236
Y225968
X082036
Y227468
X080436
Y225968
X077636
Y227468
X076036
Y225968
X073236
Y227468
X071636
Y225968
X068836
Y227468
X067236
Y225968
X063036
Y227468
X061436
Y225968
X058636
Y227468
X057036
Y225968
X054236
Y227468
X052636
Y225968
X049836
Y227468
X048236
Y225968
X044036
Y227468
X042436
Y225968
X039636
Y227468
X038036
Y225968
X035236
Y227468
X033636
Y225968
X030836
Y227468
X029236
Y225968
X025036
Y227468
X023436
Y225968
X020636
Y227468
X019036
Y225968
X016236
Y227468
X014636
Y225968
X011836
Y227468
X010236
Y225968
X006786Y223468
X010086Y231968
Y233468
X011986
Y231968
X014486
Y233468
X016386
Y231968
X018886
Y233468
X020786
Y231968
X023286
Y233468
X025186
Y231968
X029086
Y233468
X030986
Y231968
X033486
Y233468
X035386
Y231968
X037886
Y233468
X039786
Y231968
X042286
Y233468
X044186
Y231968
X048086
Y233468
X049986
Y231968
X052486
Y233468
X054386
Y231968
X056886
Y233468
X058786
Y231968
X061286
Y233468
X063186
Y231968
X067086
Y233468
X068986
Y231968
X071486
Y233468
X073386
Y231968
X075886
Y233468
X077786
Y231968
X080286
Y233468
X082186
Y231968
X086086
Y233468
X087986
Y231968
X090486
Y233468
X092386
Y231968
X094886
Y233468
X096786
Y231968
X099286
Y233468
X101186
Y231968
X105086
Y233468
X106986
Y231968
X109486
Y233468
X111386
Y231968
X113886
Y233468
X115786
Y231968
X118286
Y233468
X120186
Y231968
X124086
Y233468
X125986
Y231968
X128486
Y233468
X130386
Y231968
X132886
Y233468
X134786
Y231968
X137286
Y233468
X139186
Y231968
X143086
Y233468
X144986
Y231968
X147486
Y233468
X149386
Y231968
X151886
Y233468
X153786
Y231968
X156286
Y233468
X158186
Y231968
X162086
Y233468
X163986
Y231968
X166486
Y233468
X168386
Y231968
X170886
Y233468
X172786
Y231968
X175286
Y233468
X177186
Y231968
X181086
Y233468
X182986
Y231968
X185486
Y233468
X187386
Y231968
X189886
Y233468
X191786
Y231968
X194286
Y233468
X196186
Y231968
X200086
Y233468
X201986
Y231968
X204486
Y233468
X206386
Y231968
X208886
Y233468
X210786
Y231968
X213286
Y233468
X215186
Y231968
X219086
Y233468
X220986
Y231968
X223486
Y233468
X225386
Y231968
X227886
Y233468
X229786
Y231968
X232286
Y233468
X234186
Y231968
X237652Y234467
X234036Y237968
X232436
X229636
X228036
X225236
X223636
X220836
X219236
X215036
X213436
X210636
X209036
X206236
X204636
X201836
X200236
X196036
X194436
X191636
X190036
X187236
X185636
X182836
X181236
X177036
X175436
X172636
X171036
X168236
X166636
X163836
X162236
X158036
X156436
X153636
X152036
X149236
X147636
X144836
X143236
X139036
X137436
X134636
X133036
X130236
X128636
X125836
X124236
X120036
X118436
X115636
X114036
X111236
X109636
X106836
X105236
X101036
X099436
X096636
X095036
X092236
X090636
X087836
X086236
X082036
X080436
X077636
X076036
X073236
X071636
X068836
X067236
X063036
X061436
X058636
X057036
X054236
X052636
X049836
X048236
X044036
X042436
X039636
X038036
X035236
X033636
X030836
X029236
X025036
X023436
X020636
X019036
X016236
X014636
X011836
X010236
X006786Y233468
X237652Y212967
Y173467
Y133967
Y094467
Y054967
Y015467
T04
X017636Y009468
X036636
X055636
X074636
X093636
X112636
X131636
X150636
X169636
X188636
X207636
X226636
Y042968
Y048968
X207636
Y042968
X188636
Y048968
X169636
Y042968
X150636
Y048968
X131636
Y042968
X112636
Y048968
X093636
Y042968
X074636
Y048968
X055636
Y042968
X036636
Y048968
X017636
Y042968
Y082468
Y088468
X036636
Y082468
X055636
Y088468
X074636
Y082468
X093636
Y088468
X112636
Y082468
X131636
Y088468
X150636
Y082468
X169636
Y088468
X188636
Y082468
X207636
Y088468
X226636
Y082468
Y121968
Y127968
X207636
Y121968
X188636
Y127968
X169636
Y121968
X150636
Y127968
X131636
Y121968
X112636
Y127968
X093636
Y121968
X074636
Y127968
X055636
Y121968
X036636
Y127968
X017636
Y121968
Y161468
Y167468
X036636
Y161468
X055636
Y167468
X074636
Y161468
X093636
Y167468
X112636
Y161468
X131636
Y167468
X150636
Y161468
X169636
Y167468
X188636
Y161468
X207636
Y167468
X226636
Y161468
Y200968
Y206968
X207636
Y200968
X188636
Y206968
X169636
Y200968
X150636
Y206968
X131636
Y200968
X112636
Y206968
X093636
Y200968
X074636
Y206968
X055636
Y200968
X036636
Y206968
X017636
Y200968
Y240468
X036636
X055636
X074636
X093636
X112636
X131636
X150636
X169636
X188636
X207636
X226636
M30
