 M48
METRIC
VER,1
FMAT,2
T01C0.25
DETECT,ON
ATC,ON
%
T01
X014486Y012618
X016386
X018886
X020786
X023286
X025186
X024802Y015845
X023671
Y018592
X024802
X025186Y021818
X023286
X020786
X018886
X016386
X014486
X011986
X010086
Y024618
X011986
X014486
X016386
X018886
X020786
X023286
X025186
X024802Y027845
X023671
Y030592
X024802
M30